<?xml version="1.0" encoding="utf-8" standalone="no"?>
<!DOCTYPE svg PUBLIC "-//W3C//DTD SVG 1.1//EN"
  "http://www.w3.org/Graphics/SVG/1.1/DTD/svg11.dtd">
<svg xmlns:xlink="http://www.w3.org/1999/xlink" width="1105.92pt" height="577.728pt" viewBox="0 0 1105.92 577.728" xmlns="http://www.w3.org/2000/svg" version="1.1">
 <metadata>
  <rdf:RDF xmlns:dc="http://purl.org/dc/elements/1.1/" xmlns:cc="http://creativecommons.org/ns#" xmlns:rdf="http://www.w3.org/1999/02/22-rdf-syntax-ns#">
   <cc:Work>
    <dc:type rdf:resource="http://purl.org/dc/dcmitype/StillImage"/>
    <dc:date>2021-11-22T17:29:00.810832</dc:date>
    <dc:format>image/svg+xml</dc:format>
    <dc:creator>
     <cc:Agent>
      <dc:title>Matplotlib v3.5.0, https://matplotlib.org/</dc:title>
     </cc:Agent>
    </dc:creator>
   </cc:Work>
  </rdf:RDF>
 </metadata>
 <defs>
  <style type="text/css">*{stroke-linejoin: round; stroke-linecap: butt}</style>
 </defs>
 <g id="figure_1">
  <g id="patch_1">
   <path d="M 0 577.728 
L 1105.92 577.728 
L 1105.92 0 
L 0 0 
z
" style="fill: #ffffff"/>
  </g>
  <g id="axes_1">
   <g id="patch_2">
    <path d="M 77.928 531.121933 
L 258.330613 531.121933 
L 258.330613 44.9344 
L 77.928 44.9344 
z
" style="fill: #ffffff"/>
   </g>
   <g id="PathCollection_1">
    <path d="M 95.968261 517.966271 
L 114.008523 501.276758 
L 128.367098 482.50318 
L 132.048784 468.612108 
L 144.934685 433.884427 
L 146.748256 385.265673 
L 141.498444 336.64692 
L 142.660702 288.028167 
L 150.089045 268.00868 
L 168.129306 259.4289 
L 178.741225 288.028167 
L 184.047184 336.64692 
L 184.966884 385.265673 
L 186.169568 388.506924 
L 194.316782 433.884427 
L 204.209829 447.003773 
L 222.25009 471.283468 
L 240.290351 475.023372 
L 255.555188 433.884427 
L 258.330613 389.68556 
L 258.330613 385.265673 
L 258.330613 380.845787 
L 255.925245 336.64692 
L 252.896799 288.028167 
L 250.959323 239.409413 
L 248.880952 190.79066 
L 244.080322 142.171907 
L 240.290351 125.965656 
L 222.603821 93.553153 
L 222.25009 93.231175 
L 204.209829 90.004339 
L 186.169568 90.830503 
L 168.129306 89.325436 
L 150.089045 82.193632 
L 132.048784 71.409959 
L 114.008523 65.985819 
L 95.968261 82.294074 
L 92.576075 93.553153 
L 89.536516 142.171907 
L 91.742614 190.79066 
L 94.765577 239.409413 
L 95.596297 288.028167 
L 92.443153 336.64692 
L 84.903568 385.265673 
L 77.928 421.41808 
L 77.928 433.884427 
L 77.928 482.50318 
L 77.928 494.839282 
z
" clip-path="url(#p3d2342cfd1)" style="fill: #ebf7e7"/>
   </g>
   <g id="PathCollection_2">
    <path d="M 95.968261 531.121933 
L 114.008523 531.121933 
L 117.731116 531.121933 
L 132.048784 509.983345 
L 150.089045 490.159677 
L 165.776229 482.50318 
L 168.129306 479.751175 
L 178.953463 482.50318 
L 186.169568 483.173783 
L 204.209829 491.840556 
L 222.25009 501.323343 
L 240.290351 502.631963 
L 258.330613 483.122527 
L 258.330613 482.50318 
L 258.330613 433.884427 
L 258.330613 389.68556 
L 255.555188 433.884427 
L 240.290351 475.023372 
L 222.25009 471.283468 
L 204.209829 447.003773 
L 194.316782 433.884427 
L 186.169568 388.506924 
L 184.966884 385.265673 
L 184.047184 336.64692 
L 178.741225 288.028167 
L 168.129306 259.4289 
L 150.089045 268.00868 
L 142.660702 288.028167 
L 141.498444 336.64692 
L 146.748256 385.265673 
L 144.934685 433.884427 
L 132.048784 468.612108 
L 128.367098 482.50318 
L 114.008523 501.276758 
L 95.968261 517.966271 
L 77.928 494.839282 
L 77.928 531.121933 
z
" clip-path="url(#p3d2342cfd1)" style="fill: #c7e9c0"/>
    <path d="M 84.903568 385.265673 
L 92.443153 336.64692 
L 95.596297 288.028167 
L 94.765577 239.409413 
L 91.742614 190.79066 
L 89.536516 142.171907 
L 92.576075 93.553153 
L 95.968261 82.294074 
L 114.008523 65.985819 
L 132.048784 71.409959 
L 150.089045 82.193632 
L 168.129306 89.325436 
L 186.169568 90.830503 
L 204.209829 90.004339 
L 222.25009 93.231175 
L 222.603821 93.553153 
L 240.290351 125.965656 
L 244.080322 142.171907 
L 248.880952 190.79066 
L 250.959323 239.409413 
L 252.896799 288.028167 
L 255.925245 336.64692 
L 258.330613 380.845787 
L 258.330613 336.64692 
L 258.330613 288.028167 
L 258.330613 239.409413 
L 258.330613 190.79066 
L 258.330613 165.857966 
L 255.450235 142.171907 
L 243.631141 93.553153 
L 240.290351 86.274897 
L 222.25009 69.082787 
L 204.209829 63.388233 
L 186.169568 61.659251 
L 168.129306 57.617553 
L 150.089045 48.115066 
L 145.41194 44.9344 
L 132.048784 44.9344 
L 114.008523 44.9344 
L 95.968261 44.9344 
L 95.659881 44.9344 
L 81.011805 93.553153 
L 77.928 139.856728 
L 77.928 142.171907 
L 77.928 146.591793 
L 79.553249 190.79066 
L 81.879676 239.409413 
L 81.647641 288.028167 
L 77.928 326.923169 
L 77.928 336.64692 
L 77.928 385.265673 
L 77.928 421.41808 
z
" clip-path="url(#p3d2342cfd1)" style="fill: #c7e9c0"/>
   </g>
   <g id="PathCollection_3">
    <path d="M 132.048784 531.121933 
L 139.961179 531.121933 
L 150.089045 518.871539 
L 168.129306 508.054642 
L 186.169568 508.321415 
L 204.209829 515.988944 
L 222.25009 524.848546 
L 240.290351 525.857482 
L 258.330613 506.348046 
L 258.330613 483.122527 
L 240.290351 502.631963 
L 222.25009 501.323343 
L 204.209829 491.840556 
L 186.169568 483.173783 
L 178.953463 482.50318 
L 168.129306 479.751175 
L 165.776229 482.50318 
L 150.089045 490.159677 
L 132.048784 509.983345 
L 117.731116 531.121933 
z
" clip-path="url(#p3d2342cfd1)" style="fill: #92d28f"/>
    <path d="M 81.647641 288.028167 
L 81.879676 239.409413 
L 79.553249 190.79066 
L 77.928 146.591793 
L 77.928 190.79066 
L 77.928 239.409413 
L 77.928 288.028167 
L 77.928 326.923169 
z
" clip-path="url(#p3d2342cfd1)" style="fill: #92d28f"/>
    <path d="M 258.330613 165.857966 
L 258.330613 142.171907 
L 258.330613 112.252674 
L 253.653508 93.553153 
L 240.290351 64.440127 
L 222.25009 44.9344 
L 204.209829 44.9344 
L 186.169568 44.9344 
L 168.129306 44.9344 
L 150.089045 44.9344 
L 145.41194 44.9344 
L 150.089045 48.115066 
L 168.129306 57.617553 
L 186.169568 61.659251 
L 204.209829 63.388233 
L 222.25009 69.082787 
L 240.290351 86.274897 
L 243.631141 93.553153 
L 255.450235 142.171907 
z
" clip-path="url(#p3d2342cfd1)" style="fill: #92d28f"/>
    <path d="M 81.011805 93.553153 
L 95.659881 44.9344 
L 84.095611 44.9344 
L 77.928 65.405454 
L 77.928 93.553153 
L 77.928 139.856728 
z
" clip-path="url(#p3d2342cfd1)" style="fill: #92d28f"/>
   </g>
   <g id="PathCollection_4">
    <path d="M 150.089045 531.121933 
L 168.129306 531.121933 
L 186.169568 531.121933 
L 204.209829 531.121933 
L 222.25009 531.121933 
L 240.290351 531.121933 
L 256.898846 531.121933 
L 258.330613 529.573565 
L 258.330613 506.348046 
L 240.290351 525.857482 
L 222.25009 524.848546 
L 204.209829 515.988944 
L 186.169568 508.321415 
L 168.129306 508.054642 
L 150.089045 518.871539 
L 139.961179 531.121933 
z
" clip-path="url(#p3d2342cfd1)" style="fill: #52b365"/>
    <path d="M 258.330613 112.252674 
L 258.330613 93.553153 
L 258.330613 83.04099 
L 241.233633 44.9344 
L 240.290351 44.9344 
L 222.25009 44.9344 
L 240.290351 64.440127 
L 253.653508 93.553153 
z
" clip-path="url(#p3d2342cfd1)" style="fill: #52b365"/>
    <path d="M 84.095611 44.9344 
L 77.928 44.9344 
L 77.928 65.405454 
z
" clip-path="url(#p3d2342cfd1)" style="fill: #52b365"/>
   </g>
   <g id="PathCollection_5">
    <path d="M 258.330613 531.121933 
L 258.330613 529.573565 
L 256.898846 531.121933 
z
" clip-path="url(#p3d2342cfd1)" style="fill: #228a44"/>
    <path d="M 258.330613 83.04099 
L 258.330613 63.330685 
L 250.076898 44.9344 
L 241.233633 44.9344 
z
" clip-path="url(#p3d2342cfd1)" style="fill: #228a44"/>
   </g>
   <g id="PathCollection_6">
    <path d="M 258.330613 63.330685 
L 258.330613 44.9344 
L 250.076898 44.9344 
z
" clip-path="url(#p3d2342cfd1)" style="fill: #005f26"/>
   </g>
   <g id="PathCollection_7">
    <defs>
     <path id="mf4c9e99a02" d="M 0 3 
C 0.795609 3 1.55874 2.683901 2.12132 2.12132 
C 2.683901 1.55874 3 0.795609 3 0 
C 3 -0.795609 2.683901 -1.55874 2.12132 -2.12132 
C 1.55874 -2.683901 0.795609 -3 0 -3 
C -0.795609 -3 -1.55874 -2.683901 -2.12132 -2.12132 
C -2.683901 -1.55874 -3 -0.795609 -3 0 
C -3 0.795609 -2.683901 1.55874 -2.12132 2.12132 
C -1.55874 2.683901 -0.795609 3 0 3 
z
" style="stroke: #000000"/>
    </defs>
    <g clip-path="url(#p3d2342cfd1)">
     <use xlink:href="#mf4c9e99a02" x="198.583" y="245.966631" style="stroke: #000000"/>
     <use xlink:href="#mf4c9e99a02" x="201.394017" y="240.925374" style="stroke: #000000"/>
     <use xlink:href="#mf4c9e99a02" x="205.060225" y="239.055986" style="stroke: #000000"/>
     <use xlink:href="#mf4c9e99a02" x="201.036827" y="237.528386" style="stroke: #000000"/>
     <use xlink:href="#mf4c9e99a02" x="196.158325" y="257.959757" style="stroke: #000000"/>
     <use xlink:href="#mf4c9e99a02" x="205.395571" y="287.883337" style="stroke: #000000"/>
     <use xlink:href="#mf4c9e99a02" x="200.001874" y="223.195838" style="stroke: #000000"/>
     <use xlink:href="#mf4c9e99a02" x="205.959421" y="206.538839" style="stroke: #000000"/>
     <use xlink:href="#mf4c9e99a02" x="204.982599" y="270.888256" style="stroke: #000000"/>
     <use xlink:href="#mf4c9e99a02" x="200.017517" y="237.769796" style="stroke: #000000"/>
     <use xlink:href="#mf4c9e99a02" x="204.207073" y="224.246601" style="stroke: #000000"/>
     <use xlink:href="#mf4c9e99a02" x="206.143376" y="270.643635" style="stroke: #000000"/>
     <use xlink:href="#mf4c9e99a02" x="205.277875" y="225.741789" style="stroke: #000000"/>
     <use xlink:href="#mf4c9e99a02" x="207.802153" y="238.354067" style="stroke: #000000"/>
     <use xlink:href="#mf4c9e99a02" x="194.691522" y="235.572861" style="stroke: #000000"/>
     <use xlink:href="#mf4c9e99a02" x="193.53614" y="205.221076" style="stroke: #000000"/>
     <use xlink:href="#mf4c9e99a02" x="161.968451" y="288.184744" style="stroke: #000000"/>
     <use xlink:href="#mf4c9e99a02" x="199.089576" y="232.286451" style="stroke: #000000"/>
     <use xlink:href="#mf4c9e99a02" x="198.165305" y="259.003967" style="stroke: #000000"/>
     <use xlink:href="#mf4c9e99a02" x="153.7373" y="322.772559" style="stroke: #000000"/>
     <use xlink:href="#mf4c9e99a02" x="193.76834" y="242.365355" style="stroke: #000000"/>
     <use xlink:href="#mf4c9e99a02" x="173.216051" y="185.742558" style="stroke: #000000"/>
     <use xlink:href="#mf4c9e99a02" x="193.247994" y="300.071914" style="stroke: #000000"/>
     <use xlink:href="#mf4c9e99a02" x="188.415195" y="216.175898" style="stroke: #000000"/>
     <use xlink:href="#mf4c9e99a02" x="207.589901" y="238.855366" style="stroke: #000000"/>
    </g>
   </g>
   <g id="matplotlib.axis_1">
    <g id="xtick_1">
     <g id="line2d_1">
      <defs>
       <path id="mbbf59dfa39" d="M 0 0 
L 0 3.5 
" style="stroke: #000000; stroke-width: 0.8"/>
      </defs>
      <g>
       <use xlink:href="#mbbf59dfa39" x="95.968261" y="531.121933" style="stroke: #000000; stroke-width: 0.8"/>
      </g>
     </g>
     <g id="text_1">
      <!-- −4 -->
      <g transform="translate(88.597168 545.720371)scale(0.1 -0.1)">
       <defs>
        <path id="DejaVuSans-2212" d="M 678 2272 
L 4684 2272 
L 4684 1741 
L 678 1741 
L 678 2272 
z
" transform="scale(0.015625)"/>
        <path id="DejaVuSans-34" d="M 2419 4116 
L 825 1625 
L 2419 1625 
L 2419 4116 
z
M 2253 4666 
L 3047 4666 
L 3047 1625 
L 3713 1625 
L 3713 1100 
L 3047 1100 
L 3047 0 
L 2419 0 
L 2419 1100 
L 313 1100 
L 313 1709 
L 2253 4666 
z
" transform="scale(0.015625)"/>
       </defs>
       <use xlink:href="#DejaVuSans-2212"/>
       <use xlink:href="#DejaVuSans-34" x="83.789062"/>
      </g>
     </g>
    </g>
    <g id="xtick_2">
     <g id="line2d_2">
      <g>
       <use xlink:href="#mbbf59dfa39" x="132.048784" y="531.121933" style="stroke: #000000; stroke-width: 0.8"/>
      </g>
     </g>
     <g id="text_2">
      <!-- −2 -->
      <g transform="translate(124.67769 545.720371)scale(0.1 -0.1)">
       <defs>
        <path id="DejaVuSans-32" d="M 1228 531 
L 3431 531 
L 3431 0 
L 469 0 
L 469 531 
Q 828 903 1448 1529 
Q 2069 2156 2228 2338 
Q 2531 2678 2651 2914 
Q 2772 3150 2772 3378 
Q 2772 3750 2511 3984 
Q 2250 4219 1831 4219 
Q 1534 4219 1204 4116 
Q 875 4013 500 3803 
L 500 4441 
Q 881 4594 1212 4672 
Q 1544 4750 1819 4750 
Q 2544 4750 2975 4387 
Q 3406 4025 3406 3419 
Q 3406 3131 3298 2873 
Q 3191 2616 2906 2266 
Q 2828 2175 2409 1742 
Q 1991 1309 1228 531 
z
" transform="scale(0.015625)"/>
       </defs>
       <use xlink:href="#DejaVuSans-2212"/>
       <use xlink:href="#DejaVuSans-32" x="83.789062"/>
      </g>
     </g>
    </g>
    <g id="xtick_3">
     <g id="line2d_3">
      <g>
       <use xlink:href="#mbbf59dfa39" x="168.129306" y="531.121933" style="stroke: #000000; stroke-width: 0.8"/>
      </g>
     </g>
     <g id="text_3">
      <!-- 0 -->
      <g transform="translate(164.948056 545.720371)scale(0.1 -0.1)">
       <defs>
        <path id="DejaVuSans-30" d="M 2034 4250 
Q 1547 4250 1301 3770 
Q 1056 3291 1056 2328 
Q 1056 1369 1301 889 
Q 1547 409 2034 409 
Q 2525 409 2770 889 
Q 3016 1369 3016 2328 
Q 3016 3291 2770 3770 
Q 2525 4250 2034 4250 
z
M 2034 4750 
Q 2819 4750 3233 4129 
Q 3647 3509 3647 2328 
Q 3647 1150 3233 529 
Q 2819 -91 2034 -91 
Q 1250 -91 836 529 
Q 422 1150 422 2328 
Q 422 3509 836 4129 
Q 1250 4750 2034 4750 
z
" transform="scale(0.015625)"/>
       </defs>
       <use xlink:href="#DejaVuSans-30"/>
      </g>
     </g>
    </g>
    <g id="xtick_4">
     <g id="line2d_4">
      <g>
       <use xlink:href="#mbbf59dfa39" x="204.209829" y="531.121933" style="stroke: #000000; stroke-width: 0.8"/>
      </g>
     </g>
     <g id="text_4">
      <!-- 2 -->
      <g transform="translate(201.028579 545.720371)scale(0.1 -0.1)">
       <use xlink:href="#DejaVuSans-32"/>
      </g>
     </g>
    </g>
    <g id="xtick_5">
     <g id="line2d_5">
      <g>
       <use xlink:href="#mbbf59dfa39" x="240.290351" y="531.121933" style="stroke: #000000; stroke-width: 0.8"/>
      </g>
     </g>
     <g id="text_5">
      <!-- 4 -->
      <g transform="translate(237.109101 545.720371)scale(0.1 -0.1)">
       <use xlink:href="#DejaVuSans-34"/>
      </g>
     </g>
    </g>
   </g>
   <g id="matplotlib.axis_2">
    <g id="ytick_1">
     <g id="line2d_6">
      <defs>
       <path id="mb1ad200a34" d="M 0 0 
L -3.5 0 
" style="stroke: #000000; stroke-width: 0.8"/>
      </defs>
      <g>
       <use xlink:href="#mb1ad200a34" x="77.928" y="482.50318" style="stroke: #000000; stroke-width: 0.8"/>
      </g>
     </g>
     <g id="text_6">
      <!-- −4 -->
      <g transform="translate(56.185813 486.302399)scale(0.1 -0.1)">
       <use xlink:href="#DejaVuSans-2212"/>
       <use xlink:href="#DejaVuSans-34" x="83.789062"/>
      </g>
     </g>
    </g>
    <g id="ytick_2">
     <g id="line2d_7">
      <g>
       <use xlink:href="#mb1ad200a34" x="77.928" y="385.265673" style="stroke: #000000; stroke-width: 0.8"/>
      </g>
     </g>
     <g id="text_7">
      <!-- −2 -->
      <g transform="translate(56.185813 389.064892)scale(0.1 -0.1)">
       <use xlink:href="#DejaVuSans-2212"/>
       <use xlink:href="#DejaVuSans-32" x="83.789062"/>
      </g>
     </g>
    </g>
    <g id="ytick_3">
     <g id="line2d_8">
      <g>
       <use xlink:href="#mb1ad200a34" x="77.928" y="288.028167" style="stroke: #000000; stroke-width: 0.8"/>
      </g>
     </g>
     <g id="text_8">
      <!-- 0 -->
      <g transform="translate(64.5655 291.827385)scale(0.1 -0.1)">
       <use xlink:href="#DejaVuSans-30"/>
      </g>
     </g>
    </g>
    <g id="ytick_4">
     <g id="line2d_9">
      <g>
       <use xlink:href="#mb1ad200a34" x="77.928" y="190.79066" style="stroke: #000000; stroke-width: 0.8"/>
      </g>
     </g>
     <g id="text_9">
      <!-- 2 -->
      <g transform="translate(64.5655 194.589879)scale(0.1 -0.1)">
       <use xlink:href="#DejaVuSans-32"/>
      </g>
     </g>
    </g>
    <g id="ytick_5">
     <g id="line2d_10">
      <g>
       <use xlink:href="#mb1ad200a34" x="77.928" y="93.553153" style="stroke: #000000; stroke-width: 0.8"/>
      </g>
     </g>
     <g id="text_10">
      <!-- 4 -->
      <g transform="translate(64.5655 97.352372)scale(0.1 -0.1)">
       <use xlink:href="#DejaVuSans-34"/>
      </g>
     </g>
    </g>
   </g>
   <g id="patch_3">
    <path d="M 77.928 531.121933 
L 77.928 44.9344 
" style="fill: none; stroke: #000000; stroke-width: 0.8; stroke-linejoin: miter; stroke-linecap: square"/>
   </g>
   <g id="patch_4">
    <path d="M 258.330613 531.121933 
L 258.330613 44.9344 
" style="fill: none; stroke: #000000; stroke-width: 0.8; stroke-linejoin: miter; stroke-linecap: square"/>
   </g>
   <g id="patch_5">
    <path d="M 77.928 531.121933 
L 258.330613 531.121933 
" style="fill: none; stroke: #000000; stroke-width: 0.8; stroke-linejoin: miter; stroke-linecap: square"/>
   </g>
   <g id="patch_6">
    <path d="M 77.928 44.9344 
L 258.330613 44.9344 
" style="fill: none; stroke: #000000; stroke-width: 0.8; stroke-linejoin: miter; stroke-linecap: square"/>
   </g>
   <g id="text_11">
    <!-- Function 1 -->
    <g transform="translate(136.887119 38.9344)scale(0.12 -0.12)">
     <defs>
      <path id="DejaVuSans-46" d="M 628 4666 
L 3309 4666 
L 3309 4134 
L 1259 4134 
L 1259 2759 
L 3109 2759 
L 3109 2228 
L 1259 2228 
L 1259 0 
L 628 0 
L 628 4666 
z
" transform="scale(0.015625)"/>
      <path id="DejaVuSans-75" d="M 544 1381 
L 544 3500 
L 1119 3500 
L 1119 1403 
Q 1119 906 1312 657 
Q 1506 409 1894 409 
Q 2359 409 2629 706 
Q 2900 1003 2900 1516 
L 2900 3500 
L 3475 3500 
L 3475 0 
L 2900 0 
L 2900 538 
Q 2691 219 2414 64 
Q 2138 -91 1772 -91 
Q 1169 -91 856 284 
Q 544 659 544 1381 
z
M 1991 3584 
L 1991 3584 
z
" transform="scale(0.015625)"/>
      <path id="DejaVuSans-6e" d="M 3513 2113 
L 3513 0 
L 2938 0 
L 2938 2094 
Q 2938 2591 2744 2837 
Q 2550 3084 2163 3084 
Q 1697 3084 1428 2787 
Q 1159 2491 1159 1978 
L 1159 0 
L 581 0 
L 581 3500 
L 1159 3500 
L 1159 2956 
Q 1366 3272 1645 3428 
Q 1925 3584 2291 3584 
Q 2894 3584 3203 3211 
Q 3513 2838 3513 2113 
z
" transform="scale(0.015625)"/>
      <path id="DejaVuSans-63" d="M 3122 3366 
L 3122 2828 
Q 2878 2963 2633 3030 
Q 2388 3097 2138 3097 
Q 1578 3097 1268 2742 
Q 959 2388 959 1747 
Q 959 1106 1268 751 
Q 1578 397 2138 397 
Q 2388 397 2633 464 
Q 2878 531 3122 666 
L 3122 134 
Q 2881 22 2623 -34 
Q 2366 -91 2075 -91 
Q 1284 -91 818 406 
Q 353 903 353 1747 
Q 353 2603 823 3093 
Q 1294 3584 2113 3584 
Q 2378 3584 2631 3529 
Q 2884 3475 3122 3366 
z
" transform="scale(0.015625)"/>
      <path id="DejaVuSans-74" d="M 1172 4494 
L 1172 3500 
L 2356 3500 
L 2356 3053 
L 1172 3053 
L 1172 1153 
Q 1172 725 1289 603 
Q 1406 481 1766 481 
L 2356 481 
L 2356 0 
L 1766 0 
Q 1100 0 847 248 
Q 594 497 594 1153 
L 594 3053 
L 172 3053 
L 172 3500 
L 594 3500 
L 594 4494 
L 1172 4494 
z
" transform="scale(0.015625)"/>
      <path id="DejaVuSans-69" d="M 603 3500 
L 1178 3500 
L 1178 0 
L 603 0 
L 603 3500 
z
M 603 4863 
L 1178 4863 
L 1178 4134 
L 603 4134 
L 603 4863 
z
" transform="scale(0.015625)"/>
      <path id="DejaVuSans-6f" d="M 1959 3097 
Q 1497 3097 1228 2736 
Q 959 2375 959 1747 
Q 959 1119 1226 758 
Q 1494 397 1959 397 
Q 2419 397 2687 759 
Q 2956 1122 2956 1747 
Q 2956 2369 2687 2733 
Q 2419 3097 1959 3097 
z
M 1959 3584 
Q 2709 3584 3137 3096 
Q 3566 2609 3566 1747 
Q 3566 888 3137 398 
Q 2709 -91 1959 -91 
Q 1206 -91 779 398 
Q 353 888 353 1747 
Q 353 2609 779 3096 
Q 1206 3584 1959 3584 
z
" transform="scale(0.015625)"/>
      <path id="DejaVuSans-20" transform="scale(0.015625)"/>
      <path id="DejaVuSans-31" d="M 794 531 
L 1825 531 
L 1825 4091 
L 703 3866 
L 703 4441 
L 1819 4666 
L 2450 4666 
L 2450 531 
L 3481 531 
L 3481 0 
L 794 0 
L 794 531 
z
" transform="scale(0.015625)"/>
     </defs>
     <use xlink:href="#DejaVuSans-46"/>
     <use xlink:href="#DejaVuSans-75" x="52.019531"/>
     <use xlink:href="#DejaVuSans-6e" x="115.398438"/>
     <use xlink:href="#DejaVuSans-63" x="178.777344"/>
     <use xlink:href="#DejaVuSans-74" x="233.757812"/>
     <use xlink:href="#DejaVuSans-69" x="272.966797"/>
     <use xlink:href="#DejaVuSans-6f" x="300.75"/>
     <use xlink:href="#DejaVuSans-6e" x="361.931641"/>
     <use xlink:href="#DejaVuSans-20" x="425.310547"/>
     <use xlink:href="#DejaVuSans-31" x="457.097656"/>
    </g>
   </g>
  </g>
  <g id="axes_2">
   <g id="patch_7">
    <path d="M 437.856 531.121933 
L 618.258613 531.121933 
L 618.258613 44.9344 
L 437.856 44.9344 
z
" style="fill: #ffffff"/>
   </g>
   <g id="PathCollection_8">
    <path d="M 491.976784 385.265673 
L 510.017045 414.436925 
L 528.057306 424.160676 
L 546.097568 414.436925 
L 564.137829 385.265673 
L 574.961986 336.64692 
L 578.570038 288.028167 
L 574.961986 239.409413 
L 564.137829 190.79066 
L 546.097568 161.619408 
L 528.057306 151.895657 
L 510.017045 161.619408 
L 491.976784 190.79066 
L 481.152627 239.409413 
L 477.544575 288.028167 
L 481.152627 336.64692 
L 491.976784 385.265673 
z
" clip-path="url(#pf167789f03)" style="fill: #edf8e9"/>
   </g>
   <g id="PathCollection_9">
    <path d="M 528.057306 482.50318 
L 546.097568 475.557644 
L 564.137829 454.721035 
L 574.961986 433.884427 
L 582.17809 414.436925 
L 589.909631 385.265673 
L 597.641171 336.64692 
L 600.218351 288.028167 
L 597.641171 239.409413 
L 589.909631 190.79066 
L 582.17809 161.619408 
L 574.961986 142.171907 
L 564.137829 121.335298 
L 546.097568 100.49869 
L 528.057306 93.553153 
L 510.017045 100.49869 
L 491.976784 121.335298 
L 481.152627 142.171907 
L 473.936523 161.619408 
L 466.204982 190.79066 
L 458.473441 239.409413 
L 455.896261 288.028167 
L 458.473441 336.64692 
L 466.204982 385.265673 
L 473.936523 414.436925 
L 481.152627 433.884427 
L 491.976784 454.721035 
L 510.017045 475.557644 
L 528.057306 482.50318 
z
M 491.976784 385.265673 
L 481.152627 336.64692 
L 477.544575 288.028167 
L 481.152627 239.409413 
L 491.976784 190.79066 
L 510.017045 161.619408 
L 528.057306 151.895657 
L 546.097568 161.619408 
L 564.137829 190.79066 
L 574.961986 239.409413 
L 578.570038 288.028167 
L 574.961986 336.64692 
L 564.137829 385.265673 
L 546.097568 414.436925 
L 528.057306 424.160676 
L 510.017045 414.436925 
L 491.976784 385.265673 
z
" clip-path="url(#pf167789f03)" style="fill: #d0edca"/>
   </g>
   <g id="PathCollection_10">
    <path d="M 491.976784 504.111515 
L 510.017045 520.317766 
L 528.057306 525.71985 
L 546.097568 520.317766 
L 564.137829 504.111515 
L 578.570038 482.50318 
L 582.17809 475.557644 
L 597.641171 433.884427 
L 600.218351 424.160676 
L 608.236245 385.265673 
L 614.249666 336.64692 
L 616.254139 288.028167 
L 614.249666 239.409413 
L 608.236245 190.79066 
L 600.218351 151.895657 
L 597.641171 142.171907 
L 582.17809 100.49869 
L 578.570038 93.553153 
L 564.137829 71.944819 
L 546.097568 55.738567 
L 528.057306 50.336484 
L 510.017045 55.738567 
L 491.976784 71.944819 
L 477.544575 93.553153 
L 473.936523 100.49869 
L 458.473441 142.171907 
L 455.896261 151.895657 
L 447.878367 190.79066 
L 441.864947 239.409413 
L 439.860473 288.028167 
L 441.864947 336.64692 
L 447.878367 385.265673 
L 455.896261 424.160676 
L 458.473441 433.884427 
L 473.936523 475.557644 
L 477.544575 482.50318 
z
M 528.057306 482.50318 
L 510.017045 475.557644 
L 491.976784 454.721035 
L 481.152627 433.884427 
L 473.936523 414.436925 
L 466.204982 385.265673 
L 458.473441 336.64692 
L 455.896261 288.028167 
L 458.473441 239.409413 
L 466.204982 190.79066 
L 473.936523 161.619408 
L 481.152627 142.171907 
L 491.976784 121.335298 
L 510.017045 100.49869 
L 528.057306 93.553153 
L 546.097568 100.49869 
L 564.137829 121.335298 
L 574.961986 142.171907 
L 582.17809 161.619408 
L 589.909631 190.79066 
L 597.641171 239.409413 
L 600.218351 288.028167 
L 597.641171 336.64692 
L 589.909631 385.265673 
L 582.17809 414.436925 
L 574.961986 433.884427 
L 564.137829 454.721035 
L 546.097568 475.557644 
L 528.057306 482.50318 
z
" clip-path="url(#pf167789f03)" style="fill: #a7dba0"/>
   </g>
   <g id="PathCollection_11">
    <path d="M 455.896261 482.50318 
L 473.936523 520.317766 
L 481.152627 531.121933 
L 491.976784 531.121933 
L 510.017045 531.121933 
L 528.057306 531.121933 
L 546.097568 531.121933 
L 564.137829 531.121933 
L 574.961986 531.121933 
L 582.17809 520.317766 
L 600.218351 482.50318 
L 614.249666 433.884427 
L 618.258613 414.436925 
L 618.258613 385.265673 
L 618.258613 336.64692 
L 618.258613 288.028167 
L 618.258613 239.409413 
L 618.258613 190.79066 
L 618.258613 161.619408 
L 614.249666 142.171907 
L 600.218351 93.553153 
L 582.17809 55.738567 
L 574.961986 44.9344 
L 564.137829 44.9344 
L 546.097568 44.9344 
L 528.057306 44.9344 
L 510.017045 44.9344 
L 491.976784 44.9344 
L 481.152627 44.9344 
L 473.936523 55.738567 
L 455.896261 93.553153 
L 441.864947 142.171907 
L 437.856 161.619408 
L 437.856 190.79066 
L 437.856 239.409413 
L 437.856 288.028167 
L 437.856 336.64692 
L 437.856 385.265673 
L 437.856 414.436925 
L 441.864947 433.884427 
L 455.896261 482.50318 
z
M 477.544575 482.50318 
L 473.936523 475.557644 
L 458.473441 433.884427 
L 455.896261 424.160676 
L 447.878367 385.265673 
L 441.864947 336.64692 
L 439.860473 288.028167 
L 441.864947 239.409413 
L 447.878367 190.79066 
L 455.896261 151.895657 
L 458.473441 142.171907 
L 473.936523 100.49869 
L 477.544575 93.553153 
L 491.976784 71.944819 
L 510.017045 55.738567 
L 528.057306 50.336484 
L 546.097568 55.738567 
L 564.137829 71.944819 
L 578.570038 93.553153 
L 582.17809 100.49869 
L 597.641171 142.171907 
L 600.218351 151.895657 
L 608.236245 190.79066 
L 614.249666 239.409413 
L 616.254139 288.028167 
L 614.249666 336.64692 
L 608.236245 385.265673 
L 600.218351 424.160676 
L 597.641171 433.884427 
L 582.17809 475.557644 
L 578.570038 482.50318 
L 564.137829 504.111515 
L 546.097568 520.317766 
L 528.057306 525.71985 
L 510.017045 520.317766 
L 491.976784 504.111515 
z
" clip-path="url(#pf167789f03)" style="fill: #73c476"/>
   </g>
   <g id="PathCollection_12">
    <path d="M 455.896261 525.71985 
L 458.473441 531.121933 
L 473.936523 531.121933 
L 481.152627 531.121933 
L 473.936523 520.317766 
L 455.896261 482.50318 
L 441.864947 433.884427 
L 437.856 414.436925 
L 437.856 433.884427 
L 437.856 475.557644 
L 439.860473 482.50318 
z
" clip-path="url(#pf167789f03)" style="fill: #3da65a"/>
    <path d="M 582.17809 531.121933 
L 597.641171 531.121933 
L 600.218351 525.71985 
L 616.254139 482.50318 
L 618.258613 475.557644 
L 618.258613 433.884427 
L 618.258613 414.436925 
L 614.249666 433.884427 
L 600.218351 482.50318 
L 582.17809 520.317766 
L 574.961986 531.121933 
z
" clip-path="url(#pf167789f03)" style="fill: #3da65a"/>
    <path d="M 441.864947 142.171907 
L 455.896261 93.553153 
L 473.936523 55.738567 
L 481.152627 44.9344 
L 473.936523 44.9344 
L 458.473441 44.9344 
L 455.896261 50.336484 
L 439.860473 93.553153 
L 437.856 100.49869 
L 437.856 142.171907 
L 437.856 161.619408 
z
" clip-path="url(#pf167789f03)" style="fill: #3da65a"/>
    <path d="M 618.258613 161.619408 
L 618.258613 142.171907 
L 618.258613 100.49869 
L 616.254139 93.553153 
L 600.218351 50.336484 
L 597.641171 44.9344 
L 582.17809 44.9344 
L 574.961986 44.9344 
L 582.17809 55.738567 
L 600.218351 93.553153 
L 614.249666 142.171907 
z
" clip-path="url(#pf167789f03)" style="fill: #3da65a"/>
   </g>
   <g id="PathCollection_13">
    <path d="M 455.896261 531.121933 
L 458.473441 531.121933 
L 455.896261 525.71985 
L 439.860473 482.50318 
L 437.856 475.557644 
L 437.856 482.50318 
L 437.856 520.317766 
L 441.864947 531.121933 
z
" clip-path="url(#pf167789f03)" style="fill: #18823d"/>
    <path d="M 600.218351 531.121933 
L 614.249666 531.121933 
L 618.258613 520.317766 
L 618.258613 482.50318 
L 618.258613 475.557644 
L 616.254139 482.50318 
L 600.218351 525.71985 
L 597.641171 531.121933 
z
" clip-path="url(#pf167789f03)" style="fill: #18823d"/>
    <path d="M 439.860473 93.553153 
L 455.896261 50.336484 
L 458.473441 44.9344 
L 455.896261 44.9344 
L 441.864947 44.9344 
L 437.856 55.738567 
L 437.856 93.553153 
L 437.856 100.49869 
z
" clip-path="url(#pf167789f03)" style="fill: #18823d"/>
    <path d="M 618.258613 100.49869 
L 618.258613 93.553153 
L 618.258613 55.738567 
L 614.249666 44.9344 
L 600.218351 44.9344 
L 597.641171 44.9344 
L 600.218351 50.336484 
L 616.254139 93.553153 
z
" clip-path="url(#pf167789f03)" style="fill: #18823d"/>
   </g>
   <g id="PathCollection_14">
    <path d="M 437.856 520.317766 
L 437.856 531.121933 
L 441.864947 531.121933 
z
" clip-path="url(#pf167789f03)" style="fill: #005b25"/>
    <path d="M 618.258613 531.121933 
L 618.258613 520.317766 
L 614.249666 531.121933 
z
" clip-path="url(#pf167789f03)" style="fill: #005b25"/>
    <path d="M 441.864947 44.9344 
L 437.856 44.9344 
L 437.856 55.738567 
z
" clip-path="url(#pf167789f03)" style="fill: #005b25"/>
    <path d="M 618.258613 55.738567 
L 618.258613 44.9344 
L 614.249666 44.9344 
z
" clip-path="url(#pf167789f03)" style="fill: #005b25"/>
   </g>
   <g id="PathCollection_15">
    <g clip-path="url(#pf167789f03)">
     <use xlink:href="#mf4c9e99a02" x="558.511" y="245.966631" style="stroke: #000000"/>
     <use xlink:href="#mf4c9e99a02" x="561.322017" y="240.925374" style="stroke: #000000"/>
     <use xlink:href="#mf4c9e99a02" x="564.988225" y="239.055986" style="stroke: #000000"/>
     <use xlink:href="#mf4c9e99a02" x="560.964827" y="237.528386" style="stroke: #000000"/>
     <use xlink:href="#mf4c9e99a02" x="556.086325" y="257.959757" style="stroke: #000000"/>
     <use xlink:href="#mf4c9e99a02" x="565.323571" y="287.883337" style="stroke: #000000"/>
     <use xlink:href="#mf4c9e99a02" x="559.929874" y="223.195838" style="stroke: #000000"/>
     <use xlink:href="#mf4c9e99a02" x="565.887421" y="206.538839" style="stroke: #000000"/>
     <use xlink:href="#mf4c9e99a02" x="564.910599" y="270.888256" style="stroke: #000000"/>
     <use xlink:href="#mf4c9e99a02" x="559.945517" y="237.769796" style="stroke: #000000"/>
     <use xlink:href="#mf4c9e99a02" x="564.135073" y="224.246601" style="stroke: #000000"/>
     <use xlink:href="#mf4c9e99a02" x="566.071376" y="270.643635" style="stroke: #000000"/>
     <use xlink:href="#mf4c9e99a02" x="565.205875" y="225.741789" style="stroke: #000000"/>
     <use xlink:href="#mf4c9e99a02" x="567.730153" y="238.354067" style="stroke: #000000"/>
     <use xlink:href="#mf4c9e99a02" x="554.619522" y="235.572861" style="stroke: #000000"/>
     <use xlink:href="#mf4c9e99a02" x="553.46414" y="205.221076" style="stroke: #000000"/>
     <use xlink:href="#mf4c9e99a02" x="521.896451" y="288.184744" style="stroke: #000000"/>
     <use xlink:href="#mf4c9e99a02" x="559.017576" y="232.286451" style="stroke: #000000"/>
     <use xlink:href="#mf4c9e99a02" x="558.093305" y="259.003967" style="stroke: #000000"/>
     <use xlink:href="#mf4c9e99a02" x="513.6653" y="322.772559" style="stroke: #000000"/>
     <use xlink:href="#mf4c9e99a02" x="553.69634" y="242.365355" style="stroke: #000000"/>
     <use xlink:href="#mf4c9e99a02" x="533.144051" y="185.742558" style="stroke: #000000"/>
     <use xlink:href="#mf4c9e99a02" x="553.175994" y="300.071914" style="stroke: #000000"/>
     <use xlink:href="#mf4c9e99a02" x="548.343195" y="216.175898" style="stroke: #000000"/>
     <use xlink:href="#mf4c9e99a02" x="567.517901" y="238.855366" style="stroke: #000000"/>
    </g>
   </g>
   <g id="matplotlib.axis_3">
    <g id="xtick_6">
     <g id="line2d_11">
      <g>
       <use xlink:href="#mbbf59dfa39" x="455.896261" y="531.121933" style="stroke: #000000; stroke-width: 0.8"/>
      </g>
     </g>
     <g id="text_12">
      <!-- −4 -->
      <g transform="translate(448.525168 545.720371)scale(0.1 -0.1)">
       <use xlink:href="#DejaVuSans-2212"/>
       <use xlink:href="#DejaVuSans-34" x="83.789062"/>
      </g>
     </g>
    </g>
    <g id="xtick_7">
     <g id="line2d_12">
      <g>
       <use xlink:href="#mbbf59dfa39" x="491.976784" y="531.121933" style="stroke: #000000; stroke-width: 0.8"/>
      </g>
     </g>
     <g id="text_13">
      <!-- −2 -->
      <g transform="translate(484.60569 545.720371)scale(0.1 -0.1)">
       <use xlink:href="#DejaVuSans-2212"/>
       <use xlink:href="#DejaVuSans-32" x="83.789062"/>
      </g>
     </g>
    </g>
    <g id="xtick_8">
     <g id="line2d_13">
      <g>
       <use xlink:href="#mbbf59dfa39" x="528.057306" y="531.121933" style="stroke: #000000; stroke-width: 0.8"/>
      </g>
     </g>
     <g id="text_14">
      <!-- 0 -->
      <g transform="translate(524.876056 545.720371)scale(0.1 -0.1)">
       <use xlink:href="#DejaVuSans-30"/>
      </g>
     </g>
    </g>
    <g id="xtick_9">
     <g id="line2d_14">
      <g>
       <use xlink:href="#mbbf59dfa39" x="564.137829" y="531.121933" style="stroke: #000000; stroke-width: 0.8"/>
      </g>
     </g>
     <g id="text_15">
      <!-- 2 -->
      <g transform="translate(560.956579 545.720371)scale(0.1 -0.1)">
       <use xlink:href="#DejaVuSans-32"/>
      </g>
     </g>
    </g>
    <g id="xtick_10">
     <g id="line2d_15">
      <g>
       <use xlink:href="#mbbf59dfa39" x="600.218351" y="531.121933" style="stroke: #000000; stroke-width: 0.8"/>
      </g>
     </g>
     <g id="text_16">
      <!-- 4 -->
      <g transform="translate(597.037101 545.720371)scale(0.1 -0.1)">
       <use xlink:href="#DejaVuSans-34"/>
      </g>
     </g>
    </g>
   </g>
   <g id="matplotlib.axis_4">
    <g id="ytick_6">
     <g id="line2d_16">
      <g>
       <use xlink:href="#mb1ad200a34" x="437.856" y="482.50318" style="stroke: #000000; stroke-width: 0.8"/>
      </g>
     </g>
     <g id="text_17">
      <!-- −4 -->
      <g transform="translate(416.113813 486.302399)scale(0.1 -0.1)">
       <use xlink:href="#DejaVuSans-2212"/>
       <use xlink:href="#DejaVuSans-34" x="83.789062"/>
      </g>
     </g>
    </g>
    <g id="ytick_7">
     <g id="line2d_17">
      <g>
       <use xlink:href="#mb1ad200a34" x="437.856" y="385.265673" style="stroke: #000000; stroke-width: 0.8"/>
      </g>
     </g>
     <g id="text_18">
      <!-- −2 -->
      <g transform="translate(416.113813 389.064892)scale(0.1 -0.1)">
       <use xlink:href="#DejaVuSans-2212"/>
       <use xlink:href="#DejaVuSans-32" x="83.789062"/>
      </g>
     </g>
    </g>
    <g id="ytick_8">
     <g id="line2d_18">
      <g>
       <use xlink:href="#mb1ad200a34" x="437.856" y="288.028167" style="stroke: #000000; stroke-width: 0.8"/>
      </g>
     </g>
     <g id="text_19">
      <!-- 0 -->
      <g transform="translate(424.4935 291.827385)scale(0.1 -0.1)">
       <use xlink:href="#DejaVuSans-30"/>
      </g>
     </g>
    </g>
    <g id="ytick_9">
     <g id="line2d_19">
      <g>
       <use xlink:href="#mb1ad200a34" x="437.856" y="190.79066" style="stroke: #000000; stroke-width: 0.8"/>
      </g>
     </g>
     <g id="text_20">
      <!-- 2 -->
      <g transform="translate(424.4935 194.589879)scale(0.1 -0.1)">
       <use xlink:href="#DejaVuSans-32"/>
      </g>
     </g>
    </g>
    <g id="ytick_10">
     <g id="line2d_20">
      <g>
       <use xlink:href="#mb1ad200a34" x="437.856" y="93.553153" style="stroke: #000000; stroke-width: 0.8"/>
      </g>
     </g>
     <g id="text_21">
      <!-- 4 -->
      <g transform="translate(424.4935 97.352372)scale(0.1 -0.1)">
       <use xlink:href="#DejaVuSans-34"/>
      </g>
     </g>
    </g>
   </g>
   <g id="patch_8">
    <path d="M 437.856 531.121933 
L 437.856 44.9344 
" style="fill: none; stroke: #000000; stroke-width: 0.8; stroke-linejoin: miter; stroke-linecap: square"/>
   </g>
   <g id="patch_9">
    <path d="M 618.258613 531.121933 
L 618.258613 44.9344 
" style="fill: none; stroke: #000000; stroke-width: 0.8; stroke-linejoin: miter; stroke-linecap: square"/>
   </g>
   <g id="patch_10">
    <path d="M 437.856 531.121933 
L 618.258613 531.121933 
" style="fill: none; stroke: #000000; stroke-width: 0.8; stroke-linejoin: miter; stroke-linecap: square"/>
   </g>
   <g id="patch_11">
    <path d="M 437.856 44.9344 
L 618.258613 44.9344 
" style="fill: none; stroke: #000000; stroke-width: 0.8; stroke-linejoin: miter; stroke-linecap: square"/>
   </g>
   <g id="text_22">
    <!-- Function 2 -->
    <g transform="translate(496.815119 38.9344)scale(0.12 -0.12)">
     <use xlink:href="#DejaVuSans-46"/>
     <use xlink:href="#DejaVuSans-75" x="52.019531"/>
     <use xlink:href="#DejaVuSans-6e" x="115.398438"/>
     <use xlink:href="#DejaVuSans-63" x="178.777344"/>
     <use xlink:href="#DejaVuSans-74" x="233.757812"/>
     <use xlink:href="#DejaVuSans-69" x="272.966797"/>
     <use xlink:href="#DejaVuSans-6f" x="300.75"/>
     <use xlink:href="#DejaVuSans-6e" x="361.931641"/>
     <use xlink:href="#DejaVuSans-20" x="425.310547"/>
     <use xlink:href="#DejaVuSans-32" x="457.097656"/>
    </g>
   </g>
  </g>
  <g id="axes_3">
   <g id="patch_12">
    <path d="M 797.784 531.121933 
L 978.186613 531.121933 
L 978.186613 44.9344 
L 797.784 44.9344 
z
" style="fill: #ffffff"/>
   </g>
   <g id="PathCollection_16">
    <path d="M 815.824261 499.343195 
L 833.864523 487.802855 
L 838.326093 482.50318 
L 851.904784 438.304313 
L 853.789587 433.884427 
L 854.027167 385.265673 
L 851.904784 369.912383 
L 844.798014 336.64692 
L 839.877943 288.028167 
L 851.904784 264.557044 
L 861.927151 239.409413 
L 869.945045 226.996115 
L 887.985306 220.188046 
L 898.560632 239.409413 
L 906.025568 259.527518 
L 911.223609 288.028167 
L 914.043462 336.64692 
L 915.475228 385.265673 
L 924.065829 422.664714 
L 926.727507 433.884427 
L 942.10609 452.33826 
L 960.146351 453.402904 
L 967.284584 433.884427 
L 971.191409 385.265673 
L 969.563595 336.64692 
L 967.362456 288.028167 
L 965.974744 239.409413 
L 964.265133 190.79066 
L 960.146351 146.591793 
L 959.032755 142.171907 
L 942.10609 113.5283 
L 924.065829 107.444226 
L 906.025568 112.428669 
L 887.985306 111.873263 
L 871.811279 93.553153 
L 869.945045 92.899089 
L 851.904784 83.875487 
L 833.864523 80.380585 
L 820.272545 93.553153 
L 815.824261 113.000655 
L 813.78624 142.171907 
L 815.668069 190.79066 
L 815.824261 193.568874 
L 825.583747 239.409413 
L 831.287342 288.028167 
L 822.931031 336.64692 
L 815.824261 348.138625 
L 811.058909 385.265673 
L 803.843324 433.884427 
L 804.52632 482.50318 
z
" clip-path="url(#p1e76fe3133)" style="fill: #eef8ea"/>
   </g>
   <g id="PathCollection_17">
    <path d="M 815.824261 531.121933 
L 816.586526 531.121933 
L 833.864523 515.45333 
L 851.904784 492.674467 
L 862.27275 482.50318 
L 869.945045 463.957882 
L 887.985306 447.222315 
L 906.025568 454.109828 
L 924.065829 474.46098 
L 931.028737 482.50318 
L 942.10609 487.837526 
L 960.146351 488.223033 
L 965.224351 482.50318 
L 978.186613 447.04439 
L 978.186613 433.884427 
L 978.186613 385.265673 
L 978.186613 336.64692 
L 978.186613 288.028167 
L 978.186613 261.017748 
L 977.076443 239.409413 
L 974.150207 190.79066 
L 968.545663 142.171907 
L 960.146351 106.559444 
L 953.195058 93.553153 
L 942.10609 83.079017 
L 924.065829 78.091359 
L 906.025568 77.221757 
L 887.985306 74.431133 
L 869.945045 66.736532 
L 851.904784 56.225011 
L 833.864523 51.640435 
L 815.824261 68.632988 
L 808.251806 93.553153 
L 804.728368 142.171907 
L 806.296504 190.79066 
L 808.657582 239.409413 
L 808.892535 288.028167 
L 805.27613 336.64692 
L 797.784 383.419392 
L 797.784 385.265673 
L 797.784 433.884427 
L 797.784 482.50318 
L 797.784 510.722456 
L 814.965201 531.121933 
z
M 804.52632 482.50318 
L 803.843324 433.884427 
L 811.058909 385.265673 
L 815.824261 348.138625 
L 822.931031 336.64692 
L 831.287342 288.028167 
L 825.583747 239.409413 
L 815.824261 193.568874 
L 815.668069 190.79066 
L 813.78624 142.171907 
L 815.824261 113.000655 
L 820.272545 93.553153 
L 833.864523 80.380585 
L 851.904784 83.875487 
L 869.945045 92.899089 
L 871.811279 93.553153 
L 887.985306 111.873263 
L 906.025568 112.428669 
L 924.065829 107.444226 
L 942.10609 113.5283 
L 959.032755 142.171907 
L 960.146351 146.591793 
L 964.265133 190.79066 
L 965.974744 239.409413 
L 967.362456 288.028167 
L 969.563595 336.64692 
L 971.191409 385.265673 
L 967.284584 433.884427 
L 960.146351 453.402904 
L 942.10609 452.33826 
L 926.727507 433.884427 
L 924.065829 422.664714 
L 915.475228 385.265673 
L 914.043462 336.64692 
L 911.223609 288.028167 
L 906.025568 259.527518 
L 898.560632 239.409413 
L 887.985306 220.188046 
L 869.945045 226.996115 
L 861.927151 239.409413 
L 851.904784 264.557044 
L 839.877943 288.028167 
L 844.798014 336.64692 
L 851.904784 369.912383 
L 854.027167 385.265673 
L 853.789587 433.884427 
L 851.904784 438.304313 
L 838.326093 482.50318 
L 833.864523 487.802855 
L 815.824261 499.343195 
z
" clip-path="url(#p1e76fe3133)" style="fill: #d6efd0"/>
   </g>
   <g id="PathCollection_18">
    <path d="M 797.784 510.722456 
L 797.784 531.121933 
L 814.965201 531.121933 
z
" clip-path="url(#p1e76fe3133)" style="fill: #b4e1ad"/>
    <path d="M 833.864523 531.121933 
L 841.617362 531.121933 
L 851.904784 517.085557 
L 869.945045 497.846741 
L 887.985306 489.031493 
L 906.025568 490.145593 
L 924.065829 497.823559 
L 942.10609 506.126712 
L 960.146351 506.285728 
L 978.186613 485.965196 
L 978.186613 482.50318 
L 978.186613 447.04439 
L 965.224351 482.50318 
L 960.146351 488.223033 
L 942.10609 487.837526 
L 931.028737 482.50318 
L 924.065829 474.46098 
L 906.025568 454.109828 
L 887.985306 447.222315 
L 869.945045 463.957882 
L 862.27275 482.50318 
L 851.904784 492.674467 
L 833.864523 515.45333 
L 816.586526 531.121933 
z
" clip-path="url(#p1e76fe3133)" style="fill: #b4e1ad"/>
    <path d="M 805.27613 336.64692 
L 808.892535 288.028167 
L 808.657582 239.409413 
L 806.296504 190.79066 
L 804.728368 142.171907 
L 808.251806 93.553153 
L 815.824261 68.632988 
L 833.864523 51.640435 
L 851.904784 56.225011 
L 869.945045 66.736532 
L 887.985306 74.431133 
L 906.025568 77.221757 
L 924.065829 78.091359 
L 942.10609 83.079017 
L 953.195058 93.553153 
L 960.146351 106.559444 
L 968.545663 142.171907 
L 974.150207 190.79066 
L 977.076443 239.409413 
L 978.186613 261.017748 
L 978.186613 239.409413 
L 978.186613 190.79066 
L 978.186613 149.201124 
L 977.310163 142.171907 
L 965.189865 93.553153 
L 960.146351 82.496994 
L 942.10609 64.319369 
L 924.065829 57.475633 
L 906.025568 54.695694 
L 887.985306 50.020044 
L 877.962939 44.9344 
L 869.945045 44.9344 
L 851.904784 44.9344 
L 833.864523 44.9344 
L 815.824261 44.9344 
L 814.116747 44.9344 
L 799.343035 93.553153 
L 797.784 114.389762 
L 797.784 142.171907 
L 797.784 190.79066 
L 797.784 214.043107 
L 798.772507 239.409413 
L 798.228341 288.028167 
L 797.784 292.989264 
L 797.784 336.64692 
L 797.784 383.419392 
z
" clip-path="url(#p1e76fe3133)" style="fill: #b4e1ad"/>
   </g>
   <g id="PathCollection_19">
    <path d="M 851.904784 531.121933 
L 860.193553 531.121933 
L 869.945045 520.030203 
L 887.985306 509.647219 
L 906.025568 509.658136 
L 924.065829 516.583206 
L 942.10609 524.415898 
L 960.146351 524.348423 
L 978.186613 504.027891 
L 978.186613 485.965196 
L 960.146351 506.285728 
L 942.10609 506.126712 
L 924.065829 497.823559 
L 906.025568 490.145593 
L 887.985306 489.031493 
L 869.945045 497.846741 
L 851.904784 517.085557 
L 841.617362 531.121933 
z
" clip-path="url(#p1e76fe3133)" style="fill: #8ace88"/>
    <path d="M 798.228341 288.028167 
L 798.772507 239.409413 
L 797.784 214.043107 
L 797.784 239.409413 
L 797.784 288.028167 
L 797.784 292.989264 
z
" clip-path="url(#p1e76fe3133)" style="fill: #8ace88"/>
    <path d="M 978.186613 149.201124 
L 978.186613 142.171907 
L 978.186613 114.389762 
L 972.949117 93.553153 
L 960.146351 65.487517 
L 942.10609 45.559722 
L 940.691168 44.9344 
L 924.065829 44.9344 
L 906.025568 44.9344 
L 887.985306 44.9344 
L 877.962939 44.9344 
L 887.985306 50.020044 
L 906.025568 54.695694 
L 924.065829 57.475633 
L 942.10609 64.319369 
L 960.146351 82.496994 
L 965.189865 93.553153 
L 977.310163 142.171907 
z
" clip-path="url(#p1e76fe3133)" style="fill: #8ace88"/>
    <path d="M 799.343035 93.553153 
L 814.116747 44.9344 
L 805.207976 44.9344 
L 797.784 69.365934 
L 797.784 93.553153 
L 797.784 114.389762 
z
" clip-path="url(#p1e76fe3133)" style="fill: #8ace88"/>
   </g>
   <g id="PathCollection_20">
    <path d="M 869.945045 531.121933 
L 886.597594 531.121933 
L 887.985306 530.262945 
L 906.025568 529.170679 
L 911.576417 531.121933 
L 924.065829 531.121933 
L 942.10609 531.121933 
L 960.146351 531.121933 
L 970.168719 531.121933 
L 978.186613 522.090586 
L 978.186613 504.027891 
L 960.146351 524.348423 
L 942.10609 524.415898 
L 924.065829 516.583206 
L 906.025568 509.658136 
L 887.985306 509.647219 
L 869.945045 520.030203 
L 860.193553 531.121933 
z
" clip-path="url(#p1e76fe3133)" style="fill: #5ab769"/>
    <path d="M 978.186613 114.389762 
L 978.186613 93.553153 
L 978.186613 88.550168 
L 960.146351 48.478041 
L 956.947724 44.9344 
L 942.10609 44.9344 
L 940.691168 44.9344 
L 942.10609 45.559722 
L 960.146351 65.487517 
L 972.949117 93.553153 
z
" clip-path="url(#p1e76fe3133)" style="fill: #5ab769"/>
    <path d="M 805.207976 44.9344 
L 797.784 44.9344 
L 797.784 69.365934 
z
" clip-path="url(#p1e76fe3133)" style="fill: #5ab769"/>
   </g>
   <g id="PathCollection_21">
    <path d="M 887.985306 531.121933 
L 906.025568 531.121933 
L 911.576417 531.121933 
L 906.025568 529.170679 
L 887.985306 530.262945 
L 886.597594 531.121933 
z
" clip-path="url(#p1e76fe3133)" style="fill: #319a50"/>
    <path d="M 978.186613 531.121933 
L 978.186613 522.090586 
L 970.168719 531.121933 
z
" clip-path="url(#p1e76fe3133)" style="fill: #319a50"/>
    <path d="M 960.146351 48.478041 
L 978.186613 88.550168 
L 978.186613 73.156368 
L 965.587065 44.9344 
L 960.146351 44.9344 
L 956.947724 44.9344 
z
" clip-path="url(#p1e76fe3133)" style="fill: #319a50"/>
   </g>
   <g id="PathCollection_22">
    <path d="M 978.186613 73.156368 
L 978.186613 57.762567 
L 972.459546 44.9344 
L 965.587065 44.9344 
z
" clip-path="url(#p1e76fe3133)" style="fill: #117b38"/>
   </g>
   <g id="PathCollection_23">
    <path d="M 978.186613 57.762567 
L 978.186613 44.9344 
L 972.459546 44.9344 
z
" clip-path="url(#p1e76fe3133)" style="fill: #005723"/>
   </g>
   <g id="PathCollection_24">
    <g clip-path="url(#p1e76fe3133)">
     <use xlink:href="#mf4c9e99a02" x="918.439" y="245.966631" style="stroke: #000000"/>
     <use xlink:href="#mf4c9e99a02" x="921.250017" y="240.925374" style="stroke: #000000"/>
     <use xlink:href="#mf4c9e99a02" x="924.916225" y="239.055986" style="stroke: #000000"/>
     <use xlink:href="#mf4c9e99a02" x="920.892827" y="237.528386" style="stroke: #000000"/>
     <use xlink:href="#mf4c9e99a02" x="916.014325" y="257.959757" style="stroke: #000000"/>
     <use xlink:href="#mf4c9e99a02" x="925.251571" y="287.883337" style="stroke: #000000"/>
     <use xlink:href="#mf4c9e99a02" x="919.857874" y="223.195838" style="stroke: #000000"/>
     <use xlink:href="#mf4c9e99a02" x="925.815421" y="206.538839" style="stroke: #000000"/>
     <use xlink:href="#mf4c9e99a02" x="924.838599" y="270.888256" style="stroke: #000000"/>
     <use xlink:href="#mf4c9e99a02" x="919.873517" y="237.769796" style="stroke: #000000"/>
     <use xlink:href="#mf4c9e99a02" x="924.063073" y="224.246601" style="stroke: #000000"/>
     <use xlink:href="#mf4c9e99a02" x="925.999376" y="270.643635" style="stroke: #000000"/>
     <use xlink:href="#mf4c9e99a02" x="925.133875" y="225.741789" style="stroke: #000000"/>
     <use xlink:href="#mf4c9e99a02" x="927.658153" y="238.354067" style="stroke: #000000"/>
     <use xlink:href="#mf4c9e99a02" x="914.547522" y="235.572861" style="stroke: #000000"/>
     <use xlink:href="#mf4c9e99a02" x="913.39214" y="205.221076" style="stroke: #000000"/>
     <use xlink:href="#mf4c9e99a02" x="881.824451" y="288.184744" style="stroke: #000000"/>
     <use xlink:href="#mf4c9e99a02" x="918.945576" y="232.286451" style="stroke: #000000"/>
     <use xlink:href="#mf4c9e99a02" x="918.021305" y="259.003967" style="stroke: #000000"/>
     <use xlink:href="#mf4c9e99a02" x="873.5933" y="322.772559" style="stroke: #000000"/>
     <use xlink:href="#mf4c9e99a02" x="913.62434" y="242.365355" style="stroke: #000000"/>
     <use xlink:href="#mf4c9e99a02" x="893.072051" y="185.742558" style="stroke: #000000"/>
     <use xlink:href="#mf4c9e99a02" x="913.103994" y="300.071914" style="stroke: #000000"/>
     <use xlink:href="#mf4c9e99a02" x="908.271195" y="216.175898" style="stroke: #000000"/>
     <use xlink:href="#mf4c9e99a02" x="927.445901" y="238.855366" style="stroke: #000000"/>
    </g>
   </g>
   <g id="matplotlib.axis_5">
    <g id="xtick_11">
     <g id="line2d_21">
      <g>
       <use xlink:href="#mbbf59dfa39" x="815.824261" y="531.121933" style="stroke: #000000; stroke-width: 0.8"/>
      </g>
     </g>
     <g id="text_23">
      <!-- −4 -->
      <g transform="translate(808.453168 545.720371)scale(0.1 -0.1)">
       <use xlink:href="#DejaVuSans-2212"/>
       <use xlink:href="#DejaVuSans-34" x="83.789062"/>
      </g>
     </g>
    </g>
    <g id="xtick_12">
     <g id="line2d_22">
      <g>
       <use xlink:href="#mbbf59dfa39" x="851.904784" y="531.121933" style="stroke: #000000; stroke-width: 0.8"/>
      </g>
     </g>
     <g id="text_24">
      <!-- −2 -->
      <g transform="translate(844.53369 545.720371)scale(0.1 -0.1)">
       <use xlink:href="#DejaVuSans-2212"/>
       <use xlink:href="#DejaVuSans-32" x="83.789062"/>
      </g>
     </g>
    </g>
    <g id="xtick_13">
     <g id="line2d_23">
      <g>
       <use xlink:href="#mbbf59dfa39" x="887.985306" y="531.121933" style="stroke: #000000; stroke-width: 0.8"/>
      </g>
     </g>
     <g id="text_25">
      <!-- 0 -->
      <g transform="translate(884.804056 545.720371)scale(0.1 -0.1)">
       <use xlink:href="#DejaVuSans-30"/>
      </g>
     </g>
    </g>
    <g id="xtick_14">
     <g id="line2d_24">
      <g>
       <use xlink:href="#mbbf59dfa39" x="924.065829" y="531.121933" style="stroke: #000000; stroke-width: 0.8"/>
      </g>
     </g>
     <g id="text_26">
      <!-- 2 -->
      <g transform="translate(920.884579 545.720371)scale(0.1 -0.1)">
       <use xlink:href="#DejaVuSans-32"/>
      </g>
     </g>
    </g>
    <g id="xtick_15">
     <g id="line2d_25">
      <g>
       <use xlink:href="#mbbf59dfa39" x="960.146351" y="531.121933" style="stroke: #000000; stroke-width: 0.8"/>
      </g>
     </g>
     <g id="text_27">
      <!-- 4 -->
      <g transform="translate(956.965101 545.720371)scale(0.1 -0.1)">
       <use xlink:href="#DejaVuSans-34"/>
      </g>
     </g>
    </g>
   </g>
   <g id="matplotlib.axis_6">
    <g id="ytick_11">
     <g id="line2d_26">
      <g>
       <use xlink:href="#mb1ad200a34" x="797.784" y="482.50318" style="stroke: #000000; stroke-width: 0.8"/>
      </g>
     </g>
     <g id="text_28">
      <!-- −4 -->
      <g transform="translate(776.041812 486.302399)scale(0.1 -0.1)">
       <use xlink:href="#DejaVuSans-2212"/>
       <use xlink:href="#DejaVuSans-34" x="83.789062"/>
      </g>
     </g>
    </g>
    <g id="ytick_12">
     <g id="line2d_27">
      <g>
       <use xlink:href="#mb1ad200a34" x="797.784" y="385.265673" style="stroke: #000000; stroke-width: 0.8"/>
      </g>
     </g>
     <g id="text_29">
      <!-- −2 -->
      <g transform="translate(776.041812 389.064892)scale(0.1 -0.1)">
       <use xlink:href="#DejaVuSans-2212"/>
       <use xlink:href="#DejaVuSans-32" x="83.789062"/>
      </g>
     </g>
    </g>
    <g id="ytick_13">
     <g id="line2d_28">
      <g>
       <use xlink:href="#mb1ad200a34" x="797.784" y="288.028167" style="stroke: #000000; stroke-width: 0.8"/>
      </g>
     </g>
     <g id="text_30">
      <!-- 0 -->
      <g transform="translate(784.4215 291.827385)scale(0.1 -0.1)">
       <use xlink:href="#DejaVuSans-30"/>
      </g>
     </g>
    </g>
    <g id="ytick_14">
     <g id="line2d_29">
      <g>
       <use xlink:href="#mb1ad200a34" x="797.784" y="190.79066" style="stroke: #000000; stroke-width: 0.8"/>
      </g>
     </g>
     <g id="text_31">
      <!-- 2 -->
      <g transform="translate(784.4215 194.589879)scale(0.1 -0.1)">
       <use xlink:href="#DejaVuSans-32"/>
      </g>
     </g>
    </g>
    <g id="ytick_15">
     <g id="line2d_30">
      <g>
       <use xlink:href="#mb1ad200a34" x="797.784" y="93.553153" style="stroke: #000000; stroke-width: 0.8"/>
      </g>
     </g>
     <g id="text_32">
      <!-- 4 -->
      <g transform="translate(784.4215 97.352372)scale(0.1 -0.1)">
       <use xlink:href="#DejaVuSans-34"/>
      </g>
     </g>
    </g>
   </g>
   <g id="patch_13">
    <path d="M 797.784 531.121933 
L 797.784 44.9344 
" style="fill: none; stroke: #000000; stroke-width: 0.8; stroke-linejoin: miter; stroke-linecap: square"/>
   </g>
   <g id="patch_14">
    <path d="M 978.186613 531.121933 
L 978.186613 44.9344 
" style="fill: none; stroke: #000000; stroke-width: 0.8; stroke-linejoin: miter; stroke-linecap: square"/>
   </g>
   <g id="patch_15">
    <path d="M 797.784 531.121933 
L 978.186613 531.121933 
" style="fill: none; stroke: #000000; stroke-width: 0.8; stroke-linejoin: miter; stroke-linecap: square"/>
   </g>
   <g id="patch_16">
    <path d="M 797.784 44.9344 
L 978.186613 44.9344 
" style="fill: none; stroke: #000000; stroke-width: 0.8; stroke-linejoin: miter; stroke-linecap: square"/>
   </g>
   <g id="text_33">
    <!-- Average of the Functions -->
    <g transform="translate(813.351869 38.9344)scale(0.12 -0.12)">
     <defs>
      <path id="DejaVuSans-41" d="M 2188 4044 
L 1331 1722 
L 3047 1722 
L 2188 4044 
z
M 1831 4666 
L 2547 4666 
L 4325 0 
L 3669 0 
L 3244 1197 
L 1141 1197 
L 716 0 
L 50 0 
L 1831 4666 
z
" transform="scale(0.015625)"/>
      <path id="DejaVuSans-76" d="M 191 3500 
L 800 3500 
L 1894 563 
L 2988 3500 
L 3597 3500 
L 2284 0 
L 1503 0 
L 191 3500 
z
" transform="scale(0.015625)"/>
      <path id="DejaVuSans-65" d="M 3597 1894 
L 3597 1613 
L 953 1613 
Q 991 1019 1311 708 
Q 1631 397 2203 397 
Q 2534 397 2845 478 
Q 3156 559 3463 722 
L 3463 178 
Q 3153 47 2828 -22 
Q 2503 -91 2169 -91 
Q 1331 -91 842 396 
Q 353 884 353 1716 
Q 353 2575 817 3079 
Q 1281 3584 2069 3584 
Q 2775 3584 3186 3129 
Q 3597 2675 3597 1894 
z
M 3022 2063 
Q 3016 2534 2758 2815 
Q 2500 3097 2075 3097 
Q 1594 3097 1305 2825 
Q 1016 2553 972 2059 
L 3022 2063 
z
" transform="scale(0.015625)"/>
      <path id="DejaVuSans-72" d="M 2631 2963 
Q 2534 3019 2420 3045 
Q 2306 3072 2169 3072 
Q 1681 3072 1420 2755 
Q 1159 2438 1159 1844 
L 1159 0 
L 581 0 
L 581 3500 
L 1159 3500 
L 1159 2956 
Q 1341 3275 1631 3429 
Q 1922 3584 2338 3584 
Q 2397 3584 2469 3576 
Q 2541 3569 2628 3553 
L 2631 2963 
z
" transform="scale(0.015625)"/>
      <path id="DejaVuSans-61" d="M 2194 1759 
Q 1497 1759 1228 1600 
Q 959 1441 959 1056 
Q 959 750 1161 570 
Q 1363 391 1709 391 
Q 2188 391 2477 730 
Q 2766 1069 2766 1631 
L 2766 1759 
L 2194 1759 
z
M 3341 1997 
L 3341 0 
L 2766 0 
L 2766 531 
Q 2569 213 2275 61 
Q 1981 -91 1556 -91 
Q 1019 -91 701 211 
Q 384 513 384 1019 
Q 384 1609 779 1909 
Q 1175 2209 1959 2209 
L 2766 2209 
L 2766 2266 
Q 2766 2663 2505 2880 
Q 2244 3097 1772 3097 
Q 1472 3097 1187 3025 
Q 903 2953 641 2809 
L 641 3341 
Q 956 3463 1253 3523 
Q 1550 3584 1831 3584 
Q 2591 3584 2966 3190 
Q 3341 2797 3341 1997 
z
" transform="scale(0.015625)"/>
      <path id="DejaVuSans-67" d="M 2906 1791 
Q 2906 2416 2648 2759 
Q 2391 3103 1925 3103 
Q 1463 3103 1205 2759 
Q 947 2416 947 1791 
Q 947 1169 1205 825 
Q 1463 481 1925 481 
Q 2391 481 2648 825 
Q 2906 1169 2906 1791 
z
M 3481 434 
Q 3481 -459 3084 -895 
Q 2688 -1331 1869 -1331 
Q 1566 -1331 1297 -1286 
Q 1028 -1241 775 -1147 
L 775 -588 
Q 1028 -725 1275 -790 
Q 1522 -856 1778 -856 
Q 2344 -856 2625 -561 
Q 2906 -266 2906 331 
L 2906 616 
Q 2728 306 2450 153 
Q 2172 0 1784 0 
Q 1141 0 747 490 
Q 353 981 353 1791 
Q 353 2603 747 3093 
Q 1141 3584 1784 3584 
Q 2172 3584 2450 3431 
Q 2728 3278 2906 2969 
L 2906 3500 
L 3481 3500 
L 3481 434 
z
" transform="scale(0.015625)"/>
      <path id="DejaVuSans-66" d="M 2375 4863 
L 2375 4384 
L 1825 4384 
Q 1516 4384 1395 4259 
Q 1275 4134 1275 3809 
L 1275 3500 
L 2222 3500 
L 2222 3053 
L 1275 3053 
L 1275 0 
L 697 0 
L 697 3053 
L 147 3053 
L 147 3500 
L 697 3500 
L 697 3744 
Q 697 4328 969 4595 
Q 1241 4863 1831 4863 
L 2375 4863 
z
" transform="scale(0.015625)"/>
      <path id="DejaVuSans-68" d="M 3513 2113 
L 3513 0 
L 2938 0 
L 2938 2094 
Q 2938 2591 2744 2837 
Q 2550 3084 2163 3084 
Q 1697 3084 1428 2787 
Q 1159 2491 1159 1978 
L 1159 0 
L 581 0 
L 581 4863 
L 1159 4863 
L 1159 2956 
Q 1366 3272 1645 3428 
Q 1925 3584 2291 3584 
Q 2894 3584 3203 3211 
Q 3513 2838 3513 2113 
z
" transform="scale(0.015625)"/>
      <path id="DejaVuSans-73" d="M 2834 3397 
L 2834 2853 
Q 2591 2978 2328 3040 
Q 2066 3103 1784 3103 
Q 1356 3103 1142 2972 
Q 928 2841 928 2578 
Q 928 2378 1081 2264 
Q 1234 2150 1697 2047 
L 1894 2003 
Q 2506 1872 2764 1633 
Q 3022 1394 3022 966 
Q 3022 478 2636 193 
Q 2250 -91 1575 -91 
Q 1294 -91 989 -36 
Q 684 19 347 128 
L 347 722 
Q 666 556 975 473 
Q 1284 391 1588 391 
Q 1994 391 2212 530 
Q 2431 669 2431 922 
Q 2431 1156 2273 1281 
Q 2116 1406 1581 1522 
L 1381 1569 
Q 847 1681 609 1914 
Q 372 2147 372 2553 
Q 372 3047 722 3315 
Q 1072 3584 1716 3584 
Q 2034 3584 2315 3537 
Q 2597 3491 2834 3397 
z
" transform="scale(0.015625)"/>
     </defs>
     <use xlink:href="#DejaVuSans-41"/>
     <use xlink:href="#DejaVuSans-76" x="62.533203"/>
     <use xlink:href="#DejaVuSans-65" x="121.712891"/>
     <use xlink:href="#DejaVuSans-72" x="183.236328"/>
     <use xlink:href="#DejaVuSans-61" x="224.349609"/>
     <use xlink:href="#DejaVuSans-67" x="285.628906"/>
     <use xlink:href="#DejaVuSans-65" x="349.105469"/>
     <use xlink:href="#DejaVuSans-20" x="410.628906"/>
     <use xlink:href="#DejaVuSans-6f" x="442.416016"/>
     <use xlink:href="#DejaVuSans-66" x="503.597656"/>
     <use xlink:href="#DejaVuSans-20" x="538.802734"/>
     <use xlink:href="#DejaVuSans-74" x="570.589844"/>
     <use xlink:href="#DejaVuSans-68" x="609.798828"/>
     <use xlink:href="#DejaVuSans-65" x="673.177734"/>
     <use xlink:href="#DejaVuSans-20" x="734.701172"/>
     <use xlink:href="#DejaVuSans-46" x="766.488281"/>
     <use xlink:href="#DejaVuSans-75" x="818.507812"/>
     <use xlink:href="#DejaVuSans-6e" x="881.886719"/>
     <use xlink:href="#DejaVuSans-63" x="945.265625"/>
     <use xlink:href="#DejaVuSans-74" x="1000.246094"/>
     <use xlink:href="#DejaVuSans-69" x="1039.455078"/>
     <use xlink:href="#DejaVuSans-6f" x="1067.238281"/>
     <use xlink:href="#DejaVuSans-6e" x="1128.419922"/>
     <use xlink:href="#DejaVuSans-73" x="1191.798828"/>
    </g>
   </g>
  </g>
  <g id="axes_4">
   <g id="patch_17">
    <path d="M 269.605776 531.121933 
L 293.915153 531.121933 
L 293.915153 44.9344 
L 269.605776 44.9344 
z
" style="fill: #ffffff"/>
   </g>
   <g id="patch_18">
    <path clip-path="url(#pd07698aa79)" style="fill: #ffffff; stroke: #ffffff; stroke-width: 0.01; stroke-linejoin: miter"/>
   </g>
   <g id="QuadMesh_1">
    <path d="M 269.605776 531.121933 
L 293.915153 531.121933 
L 293.915153 450.090678 
L 269.605776 450.090678 
L 269.605776 531.121933 
" clip-path="url(#pd07698aa79)" style="fill: #ebf7e7"/>
    <path d="M 269.605776 450.090678 
L 293.915153 450.090678 
L 293.915153 369.059422 
L 269.605776 369.059422 
L 269.605776 450.090678 
" clip-path="url(#pd07698aa79)" style="fill: #c7e9c0"/>
    <path d="M 269.605776 369.059422 
L 293.915153 369.059422 
L 293.915153 288.028167 
L 269.605776 288.028167 
L 269.605776 369.059422 
" clip-path="url(#pd07698aa79)" style="fill: #92d28f"/>
    <path d="M 269.605776 288.028167 
L 293.915153 288.028167 
L 293.915153 206.996911 
L 269.605776 206.996911 
L 269.605776 288.028167 
" clip-path="url(#pd07698aa79)" style="fill: #52b365"/>
    <path d="M 269.605776 206.996911 
L 293.915153 206.996911 
L 293.915153 125.965656 
L 269.605776 125.965656 
L 269.605776 206.996911 
" clip-path="url(#pd07698aa79)" style="fill: #228a44"/>
    <path d="M 269.605776 125.965656 
L 293.915153 125.965656 
L 293.915153 44.9344 
L 269.605776 44.9344 
L 269.605776 125.965656 
" clip-path="url(#pd07698aa79)" style="fill: #005f26"/>
   </g>
   <g id="matplotlib.axis_7">
    <g id="ytick_16">
     <g id="line2d_31">
      <defs>
       <path id="mfc5f7eb060" d="M 0 0 
L 3.5 0 
" style="stroke: #000000; stroke-width: 0.8"/>
      </defs>
      <g>
       <use xlink:href="#mfc5f7eb060" x="293.915153" y="531.121933" style="stroke: #000000; stroke-width: 0.8"/>
      </g>
     </g>
     <g id="text_34">
      <!-- 0 -->
      <g transform="translate(300.915153 534.921152)scale(0.1 -0.1)">
       <use xlink:href="#DejaVuSans-30"/>
      </g>
     </g>
    </g>
    <g id="ytick_17">
     <g id="line2d_32">
      <g>
       <use xlink:href="#mfc5f7eb060" x="293.915153" y="450.090678" style="stroke: #000000; stroke-width: 0.8"/>
      </g>
     </g>
     <g id="text_35">
      <!-- 150 -->
      <g transform="translate(300.915153 453.889897)scale(0.1 -0.1)">
       <defs>
        <path id="DejaVuSans-35" d="M 691 4666 
L 3169 4666 
L 3169 4134 
L 1269 4134 
L 1269 2991 
Q 1406 3038 1543 3061 
Q 1681 3084 1819 3084 
Q 2600 3084 3056 2656 
Q 3513 2228 3513 1497 
Q 3513 744 3044 326 
Q 2575 -91 1722 -91 
Q 1428 -91 1123 -41 
Q 819 9 494 109 
L 494 744 
Q 775 591 1075 516 
Q 1375 441 1709 441 
Q 2250 441 2565 725 
Q 2881 1009 2881 1497 
Q 2881 1984 2565 2268 
Q 2250 2553 1709 2553 
Q 1456 2553 1204 2497 
Q 953 2441 691 2322 
L 691 4666 
z
" transform="scale(0.015625)"/>
       </defs>
       <use xlink:href="#DejaVuSans-31"/>
       <use xlink:href="#DejaVuSans-35" x="63.623047"/>
       <use xlink:href="#DejaVuSans-30" x="127.246094"/>
      </g>
     </g>
    </g>
    <g id="ytick_18">
     <g id="line2d_33">
      <g>
       <use xlink:href="#mfc5f7eb060" x="293.915153" y="369.059422" style="stroke: #000000; stroke-width: 0.8"/>
      </g>
     </g>
     <g id="text_36">
      <!-- 300 -->
      <g transform="translate(300.915153 372.858641)scale(0.1 -0.1)">
       <defs>
        <path id="DejaVuSans-33" d="M 2597 2516 
Q 3050 2419 3304 2112 
Q 3559 1806 3559 1356 
Q 3559 666 3084 287 
Q 2609 -91 1734 -91 
Q 1441 -91 1130 -33 
Q 819 25 488 141 
L 488 750 
Q 750 597 1062 519 
Q 1375 441 1716 441 
Q 2309 441 2620 675 
Q 2931 909 2931 1356 
Q 2931 1769 2642 2001 
Q 2353 2234 1838 2234 
L 1294 2234 
L 1294 2753 
L 1863 2753 
Q 2328 2753 2575 2939 
Q 2822 3125 2822 3475 
Q 2822 3834 2567 4026 
Q 2313 4219 1838 4219 
Q 1578 4219 1281 4162 
Q 984 4106 628 3988 
L 628 4550 
Q 988 4650 1302 4700 
Q 1616 4750 1894 4750 
Q 2613 4750 3031 4423 
Q 3450 4097 3450 3541 
Q 3450 3153 3228 2886 
Q 3006 2619 2597 2516 
z
" transform="scale(0.015625)"/>
       </defs>
       <use xlink:href="#DejaVuSans-33"/>
       <use xlink:href="#DejaVuSans-30" x="63.623047"/>
       <use xlink:href="#DejaVuSans-30" x="127.246094"/>
      </g>
     </g>
    </g>
    <g id="ytick_19">
     <g id="line2d_34">
      <g>
       <use xlink:href="#mfc5f7eb060" x="293.915153" y="288.028167" style="stroke: #000000; stroke-width: 0.8"/>
      </g>
     </g>
     <g id="text_37">
      <!-- 450 -->
      <g transform="translate(300.915153 291.827385)scale(0.1 -0.1)">
       <use xlink:href="#DejaVuSans-34"/>
       <use xlink:href="#DejaVuSans-35" x="63.623047"/>
       <use xlink:href="#DejaVuSans-30" x="127.246094"/>
      </g>
     </g>
    </g>
    <g id="ytick_20">
     <g id="line2d_35">
      <g>
       <use xlink:href="#mfc5f7eb060" x="293.915153" y="206.996911" style="stroke: #000000; stroke-width: 0.8"/>
      </g>
     </g>
     <g id="text_38">
      <!-- 600 -->
      <g transform="translate(300.915153 210.79613)scale(0.1 -0.1)">
       <defs>
        <path id="DejaVuSans-36" d="M 2113 2584 
Q 1688 2584 1439 2293 
Q 1191 2003 1191 1497 
Q 1191 994 1439 701 
Q 1688 409 2113 409 
Q 2538 409 2786 701 
Q 3034 994 3034 1497 
Q 3034 2003 2786 2293 
Q 2538 2584 2113 2584 
z
M 3366 4563 
L 3366 3988 
Q 3128 4100 2886 4159 
Q 2644 4219 2406 4219 
Q 1781 4219 1451 3797 
Q 1122 3375 1075 2522 
Q 1259 2794 1537 2939 
Q 1816 3084 2150 3084 
Q 2853 3084 3261 2657 
Q 3669 2231 3669 1497 
Q 3669 778 3244 343 
Q 2819 -91 2113 -91 
Q 1303 -91 875 529 
Q 447 1150 447 2328 
Q 447 3434 972 4092 
Q 1497 4750 2381 4750 
Q 2619 4750 2861 4703 
Q 3103 4656 3366 4563 
z
" transform="scale(0.015625)"/>
       </defs>
       <use xlink:href="#DejaVuSans-36"/>
       <use xlink:href="#DejaVuSans-30" x="63.623047"/>
       <use xlink:href="#DejaVuSans-30" x="127.246094"/>
      </g>
     </g>
    </g>
    <g id="ytick_21">
     <g id="line2d_36">
      <g>
       <use xlink:href="#mfc5f7eb060" x="293.915153" y="125.965656" style="stroke: #000000; stroke-width: 0.8"/>
      </g>
     </g>
     <g id="text_39">
      <!-- 750 -->
      <g transform="translate(300.915153 129.764874)scale(0.1 -0.1)">
       <defs>
        <path id="DejaVuSans-37" d="M 525 4666 
L 3525 4666 
L 3525 4397 
L 1831 0 
L 1172 0 
L 2766 4134 
L 525 4134 
L 525 4666 
z
" transform="scale(0.015625)"/>
       </defs>
       <use xlink:href="#DejaVuSans-37"/>
       <use xlink:href="#DejaVuSans-35" x="63.623047"/>
       <use xlink:href="#DejaVuSans-30" x="127.246094"/>
      </g>
     </g>
    </g>
    <g id="ytick_22">
     <g id="line2d_37">
      <g>
       <use xlink:href="#mfc5f7eb060" x="293.915153" y="44.9344" style="stroke: #000000; stroke-width: 0.8"/>
      </g>
     </g>
     <g id="text_40">
      <!-- 900 -->
      <g transform="translate(300.915153 48.733619)scale(0.1 -0.1)">
       <defs>
        <path id="DejaVuSans-39" d="M 703 97 
L 703 672 
Q 941 559 1184 500 
Q 1428 441 1663 441 
Q 2288 441 2617 861 
Q 2947 1281 2994 2138 
Q 2813 1869 2534 1725 
Q 2256 1581 1919 1581 
Q 1219 1581 811 2004 
Q 403 2428 403 3163 
Q 403 3881 828 4315 
Q 1253 4750 1959 4750 
Q 2769 4750 3195 4129 
Q 3622 3509 3622 2328 
Q 3622 1225 3098 567 
Q 2575 -91 1691 -91 
Q 1453 -91 1209 -44 
Q 966 3 703 97 
z
M 1959 2075 
Q 2384 2075 2632 2365 
Q 2881 2656 2881 3163 
Q 2881 3666 2632 3958 
Q 2384 4250 1959 4250 
Q 1534 4250 1286 3958 
Q 1038 3666 1038 3163 
Q 1038 2656 1286 2365 
Q 1534 2075 1959 2075 
z
" transform="scale(0.015625)"/>
       </defs>
       <use xlink:href="#DejaVuSans-39"/>
       <use xlink:href="#DejaVuSans-30" x="63.623047"/>
       <use xlink:href="#DejaVuSans-30" x="127.246094"/>
      </g>
     </g>
    </g>
   </g>
   <g id="LineCollection_1"/>
   <g id="patch_19">
    <path d="M 269.605776 531.121933 
L 281.760464 531.121933 
L 293.915153 531.121933 
L 293.915153 44.9344 
L 281.760464 44.9344 
L 269.605776 44.9344 
L 269.605776 531.121933 
z
" style="fill: none; stroke: #000000; stroke-width: 0.8; stroke-linejoin: miter; stroke-linecap: square"/>
   </g>
  </g>
  <g id="axes_5">
   <g id="patch_20">
    <path d="M 629.533776 531.121933 
L 653.843153 531.121933 
L 653.843153 44.9344 
L 629.533776 44.9344 
z
" style="fill: #ffffff"/>
   </g>
   <g id="patch_21">
    <path clip-path="url(#p3c3bdd3c00)" style="fill: #ffffff; stroke: #ffffff; stroke-width: 0.01; stroke-linejoin: miter"/>
   </g>
   <g id="QuadMesh_2">
    <path d="M 629.533776 531.121933 
L 653.843153 531.121933 
L 653.843153 461.666571 
L 629.533776 461.666571 
L 629.533776 531.121933 
" clip-path="url(#p3c3bdd3c00)" style="fill: #edf8e9"/>
    <path d="M 629.533776 461.666571 
L 653.843153 461.666571 
L 653.843153 392.21121 
L 629.533776 392.21121 
L 629.533776 461.666571 
" clip-path="url(#p3c3bdd3c00)" style="fill: #d0edca"/>
    <path d="M 629.533776 392.21121 
L 653.843153 392.21121 
L 653.843153 322.755848 
L 629.533776 322.755848 
L 629.533776 392.21121 
" clip-path="url(#p3c3bdd3c00)" style="fill: #a7dba0"/>
    <path d="M 629.533776 322.755848 
L 653.843153 322.755848 
L 653.843153 253.300486 
L 629.533776 253.300486 
L 629.533776 322.755848 
" clip-path="url(#p3c3bdd3c00)" style="fill: #73c476"/>
    <path d="M 629.533776 253.300486 
L 653.843153 253.300486 
L 653.843153 183.845124 
L 629.533776 183.845124 
L 629.533776 253.300486 
" clip-path="url(#p3c3bdd3c00)" style="fill: #3da65a"/>
    <path d="M 629.533776 183.845124 
L 653.843153 183.845124 
L 653.843153 114.389762 
L 629.533776 114.389762 
L 629.533776 183.845124 
" clip-path="url(#p3c3bdd3c00)" style="fill: #18823d"/>
    <path d="M 629.533776 114.389762 
L 653.843153 114.389762 
L 653.843153 44.9344 
L 629.533776 44.9344 
L 629.533776 114.389762 
" clip-path="url(#p3c3bdd3c00)" style="fill: #005b25"/>
   </g>
   <g id="matplotlib.axis_8">
    <g id="ytick_23">
     <g id="line2d_38">
      <g>
       <use xlink:href="#mfc5f7eb060" x="653.843153" y="531.121933" style="stroke: #000000; stroke-width: 0.8"/>
      </g>
     </g>
     <g id="text_41">
      <!-- 0 -->
      <g transform="translate(660.843153 534.921152)scale(0.1 -0.1)">
       <use xlink:href="#DejaVuSans-30"/>
      </g>
     </g>
    </g>
    <g id="ytick_24">
     <g id="line2d_39">
      <g>
       <use xlink:href="#mfc5f7eb060" x="653.843153" y="461.666571" style="stroke: #000000; stroke-width: 0.8"/>
      </g>
     </g>
     <g id="text_42">
      <!-- 8 -->
      <g transform="translate(660.843153 465.46579)scale(0.1 -0.1)">
       <defs>
        <path id="DejaVuSans-38" d="M 2034 2216 
Q 1584 2216 1326 1975 
Q 1069 1734 1069 1313 
Q 1069 891 1326 650 
Q 1584 409 2034 409 
Q 2484 409 2743 651 
Q 3003 894 3003 1313 
Q 3003 1734 2745 1975 
Q 2488 2216 2034 2216 
z
M 1403 2484 
Q 997 2584 770 2862 
Q 544 3141 544 3541 
Q 544 4100 942 4425 
Q 1341 4750 2034 4750 
Q 2731 4750 3128 4425 
Q 3525 4100 3525 3541 
Q 3525 3141 3298 2862 
Q 3072 2584 2669 2484 
Q 3125 2378 3379 2068 
Q 3634 1759 3634 1313 
Q 3634 634 3220 271 
Q 2806 -91 2034 -91 
Q 1263 -91 848 271 
Q 434 634 434 1313 
Q 434 1759 690 2068 
Q 947 2378 1403 2484 
z
M 1172 3481 
Q 1172 3119 1398 2916 
Q 1625 2713 2034 2713 
Q 2441 2713 2670 2916 
Q 2900 3119 2900 3481 
Q 2900 3844 2670 4047 
Q 2441 4250 2034 4250 
Q 1625 4250 1398 4047 
Q 1172 3844 1172 3481 
z
" transform="scale(0.015625)"/>
       </defs>
       <use xlink:href="#DejaVuSans-38"/>
      </g>
     </g>
    </g>
    <g id="ytick_25">
     <g id="line2d_40">
      <g>
       <use xlink:href="#mfc5f7eb060" x="653.843153" y="392.21121" style="stroke: #000000; stroke-width: 0.8"/>
      </g>
     </g>
     <g id="text_43">
      <!-- 16 -->
      <g transform="translate(660.843153 396.010428)scale(0.1 -0.1)">
       <use xlink:href="#DejaVuSans-31"/>
       <use xlink:href="#DejaVuSans-36" x="63.623047"/>
      </g>
     </g>
    </g>
    <g id="ytick_26">
     <g id="line2d_41">
      <g>
       <use xlink:href="#mfc5f7eb060" x="653.843153" y="322.755848" style="stroke: #000000; stroke-width: 0.8"/>
      </g>
     </g>
     <g id="text_44">
      <!-- 24 -->
      <g transform="translate(660.843153 326.555066)scale(0.1 -0.1)">
       <use xlink:href="#DejaVuSans-32"/>
       <use xlink:href="#DejaVuSans-34" x="63.623047"/>
      </g>
     </g>
    </g>
    <g id="ytick_27">
     <g id="line2d_42">
      <g>
       <use xlink:href="#mfc5f7eb060" x="653.843153" y="253.300486" style="stroke: #000000; stroke-width: 0.8"/>
      </g>
     </g>
     <g id="text_45">
      <!-- 32 -->
      <g transform="translate(660.843153 257.099704)scale(0.1 -0.1)">
       <use xlink:href="#DejaVuSans-33"/>
       <use xlink:href="#DejaVuSans-32" x="63.623047"/>
      </g>
     </g>
    </g>
    <g id="ytick_28">
     <g id="line2d_43">
      <g>
       <use xlink:href="#mfc5f7eb060" x="653.843153" y="183.845124" style="stroke: #000000; stroke-width: 0.8"/>
      </g>
     </g>
     <g id="text_46">
      <!-- 40 -->
      <g transform="translate(660.843153 187.644343)scale(0.1 -0.1)">
       <use xlink:href="#DejaVuSans-34"/>
       <use xlink:href="#DejaVuSans-30" x="63.623047"/>
      </g>
     </g>
    </g>
    <g id="ytick_29">
     <g id="line2d_44">
      <g>
       <use xlink:href="#mfc5f7eb060" x="653.843153" y="114.389762" style="stroke: #000000; stroke-width: 0.8"/>
      </g>
     </g>
     <g id="text_47">
      <!-- 48 -->
      <g transform="translate(660.843153 118.188981)scale(0.1 -0.1)">
       <use xlink:href="#DejaVuSans-34"/>
       <use xlink:href="#DejaVuSans-38" x="63.623047"/>
      </g>
     </g>
    </g>
    <g id="ytick_30">
     <g id="line2d_45">
      <g>
       <use xlink:href="#mfc5f7eb060" x="653.843153" y="44.9344" style="stroke: #000000; stroke-width: 0.8"/>
      </g>
     </g>
     <g id="text_48">
      <!-- 56 -->
      <g transform="translate(660.843153 48.733619)scale(0.1 -0.1)">
       <use xlink:href="#DejaVuSans-35"/>
       <use xlink:href="#DejaVuSans-36" x="63.623047"/>
      </g>
     </g>
    </g>
   </g>
   <g id="LineCollection_2"/>
   <g id="patch_22">
    <path d="M 629.533776 531.121933 
L 641.688464 531.121933 
L 653.843153 531.121933 
L 653.843153 44.9344 
L 641.688464 44.9344 
L 629.533776 44.9344 
L 629.533776 531.121933 
z
" style="fill: none; stroke: #000000; stroke-width: 0.8; stroke-linejoin: miter; stroke-linecap: square"/>
   </g>
  </g>
  <g id="axes_6">
   <g id="patch_23">
    <path d="M 989.461776 531.121933 
L 1013.771153 531.121933 
L 1013.771153 44.9344 
L 989.461776 44.9344 
z
" style="fill: #ffffff"/>
   </g>
   <g id="patch_24">
    <path clip-path="url(#pf6cef391e0)" style="fill: #ffffff; stroke: #ffffff; stroke-width: 0.01; stroke-linejoin: miter"/>
   </g>
   <g id="QuadMesh_3">
    <path d="M 989.461776 531.121933 
L 1013.771153 531.121933 
L 1013.771153 470.348492 
L 989.461776 470.348492 
L 989.461776 531.121933 
" clip-path="url(#pf6cef391e0)" style="fill: #eef8ea"/>
    <path d="M 989.461776 470.348492 
L 1013.771153 470.348492 
L 1013.771153 409.57505 
L 989.461776 409.57505 
L 989.461776 470.348492 
" clip-path="url(#pf6cef391e0)" style="fill: #d6efd0"/>
    <path d="M 989.461776 409.57505 
L 1013.771153 409.57505 
L 1013.771153 348.801608 
L 989.461776 348.801608 
L 989.461776 409.57505 
" clip-path="url(#pf6cef391e0)" style="fill: #b4e1ad"/>
    <path d="M 989.461776 348.801608 
L 1013.771153 348.801608 
L 1013.771153 288.028167 
L 989.461776 288.028167 
L 989.461776 348.801608 
" clip-path="url(#pf6cef391e0)" style="fill: #8ace88"/>
    <path d="M 989.461776 288.028167 
L 1013.771153 288.028167 
L 1013.771153 227.254725 
L 989.461776 227.254725 
L 989.461776 288.028167 
" clip-path="url(#pf6cef391e0)" style="fill: #5ab769"/>
    <path d="M 989.461776 227.254725 
L 1013.771153 227.254725 
L 1013.771153 166.481283 
L 989.461776 166.481283 
L 989.461776 227.254725 
" clip-path="url(#pf6cef391e0)" style="fill: #319a50"/>
    <path d="M 989.461776 166.481283 
L 1013.771153 166.481283 
L 1013.771153 105.707842 
L 989.461776 105.707842 
L 989.461776 166.481283 
" clip-path="url(#pf6cef391e0)" style="fill: #117b38"/>
    <path d="M 989.461776 105.707842 
L 1013.771153 105.707842 
L 1013.771153 44.9344 
L 989.461776 44.9344 
L 989.461776 105.707842 
" clip-path="url(#pf6cef391e0)" style="fill: #005723"/>
   </g>
   <g id="matplotlib.axis_9">
    <g id="ytick_31">
     <g id="line2d_46">
      <g>
       <use xlink:href="#mfc5f7eb060" x="1013.771153" y="531.121933" style="stroke: #000000; stroke-width: 0.8"/>
      </g>
     </g>
     <g id="text_49">
      <!-- 0 -->
      <g transform="translate(1020.771153 534.921152)scale(0.1 -0.1)">
       <use xlink:href="#DejaVuSans-30"/>
      </g>
     </g>
    </g>
    <g id="ytick_32">
     <g id="line2d_47">
      <g>
       <use xlink:href="#mfc5f7eb060" x="1013.771153" y="470.348492" style="stroke: #000000; stroke-width: 0.8"/>
      </g>
     </g>
     <g id="text_50">
      <!-- 60 -->
      <g transform="translate(1020.771153 474.14771)scale(0.1 -0.1)">
       <use xlink:href="#DejaVuSans-36"/>
       <use xlink:href="#DejaVuSans-30" x="63.623047"/>
      </g>
     </g>
    </g>
    <g id="ytick_33">
     <g id="line2d_48">
      <g>
       <use xlink:href="#mfc5f7eb060" x="1013.771153" y="409.57505" style="stroke: #000000; stroke-width: 0.8"/>
      </g>
     </g>
     <g id="text_51">
      <!-- 120 -->
      <g transform="translate(1020.771153 413.374269)scale(0.1 -0.1)">
       <use xlink:href="#DejaVuSans-31"/>
       <use xlink:href="#DejaVuSans-32" x="63.623047"/>
       <use xlink:href="#DejaVuSans-30" x="127.246094"/>
      </g>
     </g>
    </g>
    <g id="ytick_34">
     <g id="line2d_49">
      <g>
       <use xlink:href="#mfc5f7eb060" x="1013.771153" y="348.801608" style="stroke: #000000; stroke-width: 0.8"/>
      </g>
     </g>
     <g id="text_52">
      <!-- 180 -->
      <g transform="translate(1020.771153 352.600827)scale(0.1 -0.1)">
       <use xlink:href="#DejaVuSans-31"/>
       <use xlink:href="#DejaVuSans-38" x="63.623047"/>
       <use xlink:href="#DejaVuSans-30" x="127.246094"/>
      </g>
     </g>
    </g>
    <g id="ytick_35">
     <g id="line2d_50">
      <g>
       <use xlink:href="#mfc5f7eb060" x="1013.771153" y="288.028167" style="stroke: #000000; stroke-width: 0.8"/>
      </g>
     </g>
     <g id="text_53">
      <!-- 240 -->
      <g transform="translate(1020.771153 291.827385)scale(0.1 -0.1)">
       <use xlink:href="#DejaVuSans-32"/>
       <use xlink:href="#DejaVuSans-34" x="63.623047"/>
       <use xlink:href="#DejaVuSans-30" x="127.246094"/>
      </g>
     </g>
    </g>
    <g id="ytick_36">
     <g id="line2d_51">
      <g>
       <use xlink:href="#mfc5f7eb060" x="1013.771153" y="227.254725" style="stroke: #000000; stroke-width: 0.8"/>
      </g>
     </g>
     <g id="text_54">
      <!-- 300 -->
      <g transform="translate(1020.771153 231.053944)scale(0.1 -0.1)">
       <use xlink:href="#DejaVuSans-33"/>
       <use xlink:href="#DejaVuSans-30" x="63.623047"/>
       <use xlink:href="#DejaVuSans-30" x="127.246094"/>
      </g>
     </g>
    </g>
    <g id="ytick_37">
     <g id="line2d_52">
      <g>
       <use xlink:href="#mfc5f7eb060" x="1013.771153" y="166.481283" style="stroke: #000000; stroke-width: 0.8"/>
      </g>
     </g>
     <g id="text_55">
      <!-- 360 -->
      <g transform="translate(1020.771153 170.280502)scale(0.1 -0.1)">
       <use xlink:href="#DejaVuSans-33"/>
       <use xlink:href="#DejaVuSans-36" x="63.623047"/>
       <use xlink:href="#DejaVuSans-30" x="127.246094"/>
      </g>
     </g>
    </g>
    <g id="ytick_38">
     <g id="line2d_53">
      <g>
       <use xlink:href="#mfc5f7eb060" x="1013.771153" y="105.707842" style="stroke: #000000; stroke-width: 0.8"/>
      </g>
     </g>
     <g id="text_56">
      <!-- 420 -->
      <g transform="translate(1020.771153 109.50706)scale(0.1 -0.1)">
       <use xlink:href="#DejaVuSans-34"/>
       <use xlink:href="#DejaVuSans-32" x="63.623047"/>
       <use xlink:href="#DejaVuSans-30" x="127.246094"/>
      </g>
     </g>
    </g>
    <g id="ytick_39">
     <g id="line2d_54">
      <g>
       <use xlink:href="#mfc5f7eb060" x="1013.771153" y="44.9344" style="stroke: #000000; stroke-width: 0.8"/>
      </g>
     </g>
     <g id="text_57">
      <!-- 480 -->
      <g transform="translate(1020.771153 48.733619)scale(0.1 -0.1)">
       <use xlink:href="#DejaVuSans-34"/>
       <use xlink:href="#DejaVuSans-38" x="63.623047"/>
       <use xlink:href="#DejaVuSans-30" x="127.246094"/>
      </g>
     </g>
    </g>
   </g>
   <g id="LineCollection_3"/>
   <g id="patch_25">
    <path d="M 989.461776 531.121933 
L 1001.616464 531.121933 
L 1013.771153 531.121933 
L 1013.771153 44.9344 
L 1001.616464 44.9344 
L 989.461776 44.9344 
L 989.461776 531.121933 
z
" style="fill: none; stroke: #000000; stroke-width: 0.8; stroke-linejoin: miter; stroke-linecap: square"/>
   </g>
  </g>
 </g>
 <defs>
  <clipPath id="p3d2342cfd1">
   <rect x="77.928" y="44.9344" width="180.402613" height="486.187533"/>
  </clipPath>
  <clipPath id="pf167789f03">
   <rect x="437.856" y="44.9344" width="180.402613" height="486.187533"/>
  </clipPath>
  <clipPath id="p1e76fe3133">
   <rect x="797.784" y="44.9344" width="180.402613" height="486.187533"/>
  </clipPath>
  <clipPath id="pd07698aa79">
   <rect x="269.605776" y="44.9344" width="24.309377" height="486.187533"/>
  </clipPath>
  <clipPath id="p3c3bdd3c00">
   <rect x="629.533776" y="44.9344" width="24.309377" height="486.187533"/>
  </clipPath>
  <clipPath id="pf6cef391e0">
   <rect x="989.461776" y="44.9344" width="24.309377" height="486.187533"/>
  </clipPath>
 </defs>
</svg>
